<svg xmlns="http://www.w3.org/2000/svg" viewBox="0 0 370.57 149.78"><path d="M22.78,67.4q0-2.43,9.93-18.73a46.37,46.37,0,0,0-9.41.6,9.14,9.14,0,0,0-5.78,3.89c-.46.63-.85,1-1.17,1s-.47-.07-.47-.39a1.13,1.13,0,0,1,.34-.82,20.16,20.16,0,0,1,6.48-6c2.12-1.09,5.49-1.64,10.09-1.64h2.07q5.27-8,14.76-23.81,3.54-6.64,3.54-10.79Q53.16,4.06,45,4H44.1A37.89,37.89,0,0,0,24,9.49,43.64,43.64,0,0,0,9.67,23.21Q4.41,31.42,4.4,38q0,8,7.51,8,6,0,10.18-5.26t4.23-10a6.83,6.83,0,0,0-1.38-4.4.56.56,0,0,1-.17-.43c0-.4.23-.61.69-.61a.57.57,0,0,1,.51.26,8.53,8.53,0,0,1,1.73,5.35q0,5.27-4.31,10.75t-9.07,6.08a16.48,16.48,0,0,1-2.84.26C7.79,48,5,46.8,2.93,44.44A12.28,12.28,0,0,1,0,35.81a20.74,20.74,0,0,1,.52-4.57q2.58-11.65,15-20.37A47.19,47.19,0,0,1,43.32,2.16,19.64,19.64,0,0,1,53.54,4.7a7.91,7.91,0,0,1,4.28,7.12,18.35,18.35,0,0,1-3.2,9.67L39,45.48c1.84.05,5.14.33,9.88.82S57.2,47,59.59,47s4,0,4.79-.09l3.27-5.43A165.52,165.52,0,0,1,87,15.23Q98,3,106.23.09a1.54,1.54,0,0,1,.52-.09q.6,0,.6.69a.51.51,0,0,1-.26.43q-5.52,3.1-15.84,15.06A173.89,173.89,0,0,0,73.44,40.73l-3.37,5.7c2.65-.35,4.54-1,5.7-2q.35-.25.6.3c.17.38.14.65-.09.82A16.82,16.82,0,0,1,69,48.41q-6,11.22-6,15.79c0,2,.83,2.94,2.5,2.94a9,9,0,0,0,4-1.17,12.42,12.42,0,0,0,3.07-2c.51-.55.83-.82,1-.82s.14.18.08.56a2,2,0,0,1-.34.9,21,21,0,0,1-4.4,2.94A11,11,0,0,1,64,69.12a4.77,4.77,0,0,1-2.68-.6q-2.76-1.81-2.76-6.3T63.17,49.1q-3.2.26-6,.26-.95,0-20.28-.6a159.79,159.79,0,0,0-9.83,17.6c-.75,1.55-1.66,2.33-2.72,2.33S22.78,68.26,22.78,67.4Z" style="fill:#bd1622"/><path d="M84.83,64.55a5.51,5.51,0,0,1-1.73-.26q-5.52-1.56-5.52-6.21,0-6,7.59-14t13.64-7.94A4.76,4.76,0,0,1,102,37.24a3.32,3.32,0,0,1,1.25,2.63q0,4.83-7.29,9.23T84.14,53.5a3.64,3.64,0,0,1-1.21-.17,9.9,9.9,0,0,0-1.3,4.92c0,3,1.43,4.49,4.27,4.49S92.45,60.81,97,57a55.19,55.19,0,0,0,9-9c.52-.69,1-1,1.34-1s.56.18.56.52a2.89,2.89,0,0,1-.69,1.47A53.19,53.19,0,0,1,96,59.8Q89.39,64.56,84.83,64.55Zm16.3-24.85c0-.7-.73-1-2.2-1S95.38,39.78,92.68,42a38.5,38.5,0,0,0-8.46,9.41,3.41,3.41,0,0,0,1.12.17q3.28,0,8.76-3.49T101,40.47A2,2,0,0,0,101.13,39.7Z" style="fill:#bd1622"/><path d="M106,59.11c0,1.73,1,2.59,2.84,2.59s4.35-1,7.34-3a41,41,0,0,0,8.71-8.2c.69-.92,1.24-1.38,1.64-1.38s.61.17.61.52-1.18,1.84-3.54,4.49q-8.62,9.49-14.41,9.49a8.44,8.44,0,0,1-4.83-1.34,4.63,4.63,0,0,1-2-4.14,18.13,18.13,0,0,1,1.47-6.52,115,115,0,0,1,8-14.75q10.1-16.39,14.33-16.4a3.1,3.1,0,0,1,1.77.65,2.09,2.09,0,0,1,1,1.42q-2,2.68-7.64,10.27t-7.81,10.92c-1.43,2.21-2.51,3.87-3.23,5s-1.25,1.94-1.6,2.55-.75,1.39-1.21,2.37A12.35,12.35,0,0,0,106,59.11Z" style="fill:#bd1622"/><path d="M156.1,43.92q0,7-8,13.25t-13.85,6.26a22.28,22.28,0,0,1-5.65-.52,9,9,0,0,1-3.93-3.11c-1,.81-2.3,2.86-4,6.17a19.6,19.6,0,0,0-2.5,8.5,9.13,9.13,0,0,0,1.64,4.32.56.56,0,0,1-.26.73,1.35,1.35,0,0,1-.65.3.92.92,0,0,1-.38-.08c-2.42-1.33-3.63-3.9-3.63-7.73s3.18-10.44,9.54-19.85,10.74-14.51,13.16-15.31a7.05,7.05,0,0,1,1.12-.18c1,0,1.46,1.07,1.46,3.2a8.81,8.81,0,0,1,3.54-1.64,21.08,21.08,0,0,1,4.66-.86,8.64,8.64,0,0,1,5.4,1.76A5.75,5.75,0,0,1,156.1,43.92Zm-4.4-.86c0-2.18-1.29-3.28-3.88-3.28a15.32,15.32,0,0,0-7.08,1.64q-1.47.69-8.11,7.59T126,57.9c0,1,.79,1.82,2.37,2.33a15.25,15.25,0,0,0,4.79.78q4.74,0,11.65-5.39T151.7,43.06Z" style="fill:#bd1622"/><path d="M198,62a1.78,1.78,0,0,1-1.86,2c-2.64,0-3.82-2.36-4.21-4.22q-3.67,4.13-7.35,4.12c-9.6,0-14.88-15.18-14.88-29.58,0-15.67,6.36-29.68,14.59-29.68,4,0,8,3,10.77,8.91a9.71,9.71,0,0,1,.3,1.18,2,2,0,0,1-2,2,2,2,0,0,1-1.77-1.28c-2.25-4.4-4.89-6.95-7.34-6.95-6.17,0-10.87,13.12-10.87,25.76s4.7,25.66,11,25.66c2.74,0,7.34-4,7.34-10.38V33.94H186.5a1.85,1.85,0,0,1-2.05-1.86,1.82,1.82,0,0,1,2.05-2h7.15a2,2,0,0,1,1.86,2V58a1.87,1.87,0,0,0,1.18,2.06A1.86,1.86,0,0,1,198,62Z" style="fill:#063"/><path d="M220.29,62a2,2,0,0,1-2,2,2,2,0,0,1-2-1.57c-2.94-10-5.87-19.3-10.67-22.82V62.25a1.91,1.91,0,1,1-3.82,0V6.13a1.88,1.88,0,0,1,2-1.86c4.6,0,13.71,7.15,13.71,17a17.52,17.52,0,0,1-9.11,15.38C214.32,40.51,217,49.32,219.31,58,220.39,61.56,220.29,61.66,220.29,62ZM205.7,33.65a13.25,13.25,0,0,0,8-12.34A13.36,13.36,0,0,0,205.7,9Z" style="fill:#063"/><path d="M247.32,48V61.47a2,2,0,0,1-2,2.05c-1.07,0-1.86-.58-1.86-2.05V48H231.85V61.47a1.86,1.86,0,0,1-2,2c-1.08,0-1.86-.49-1.86-2V48H224.5a1.78,1.78,0,0,1-2-1.86,1.85,1.85,0,0,1,2-2H228V13.77c0-6.37,4.89-9.6,9.69-9.6s9.6,3,9.6,9.6V44.13h3.43c1.47,0,1.86.78,1.86,1.86a1.77,1.77,0,0,1-1.86,2ZM243.5,13.77A5.49,5.49,0,0,0,237.72,8a5.57,5.57,0,0,0-5.87,5.78V44.13H243.5Z" style="fill:#063"/><path d="M280.72,61.86c0,1.08,0,2-2,2s-1.86-.88-1.86-2V14.16A5.89,5.89,0,0,0,271,8.28c-2,0-3.62,1-5.48,2.55v51a1.83,1.83,0,0,1-2,2.06c-1.08,0-1.86-.59-1.86-2.06V14.55c-1.18,1.18-2.16,2.35-3.23,2.35a2.05,2.05,0,0,1-2-2.06c0-1.07,2-2.74,3.82-4.4l1.37-1.28V6.42c0-1.47.78-2,1.86-2a1.92,1.92,0,0,1,2,1.76A10.36,10.36,0,0,1,271,4.46a9.92,9.92,0,0,1,9.7,9.7Z" style="fill:#063"/><path d="M308.83,61.86c0,1.08,0,2-2,2s-1.86-.88-1.86-2V14.16a5.89,5.89,0,0,0-5.88-5.88c-2,0-3.62,1-5.49,2.55v51a1.83,1.83,0,0,1-1.95,2.06c-1.08,0-1.86-.59-1.86-2.06V14.55c-1.18,1.18-2.16,2.35-3.24,2.35a2.06,2.06,0,0,1-2-2.06c0-1.07,2-2.74,3.82-4.4l1.38-1.28V6.42c0-1.47.78-2,1.86-2a1.9,1.9,0,0,1,1.95,1.76,10.42,10.42,0,0,1,5.49-1.76,9.92,9.92,0,0,1,9.7,9.7Z" style="fill:#063"/><path d="M316.56,62.15a2,2,0,0,1-1.86,1.37,1.88,1.88,0,0,1-2-1.86,2.14,2.14,0,0,1,.1-.88L323.52,32,314.21,6.71a2.74,2.74,0,0,1-.2-.88A1.78,1.78,0,0,1,316,4a2,2,0,0,1,1.86,1.37l7.74,21,7.64-21A2,2,0,0,1,335.07,4a1.77,1.77,0,0,1,2,1.86,1.37,1.37,0,0,1-.19.79Z" style="fill:#063"/><path d="M209.49,76l7.23-.1q.15.11.15.15,0,.45-6.25,1.26t-6.75.95a28.61,28.61,0,0,0-3.51,5.1q-2.56,4.23-2.56,6.2c0,1.24.85,1.85,2.56,1.85a9.42,9.42,0,0,0,3.16-.75,19.09,19.09,0,0,0,3-1.4,31.81,31.81,0,0,0,6-5.17c.47-.47.79-.71,1-.71s.15.1.15.3a2.88,2.88,0,0,1-.75,1.21A22.52,22.52,0,0,1,207,90a14.38,14.38,0,0,1-7.48,2.41,4.37,4.37,0,0,1-2.53-.68c-.65-.45-1-1.36-1-2.74a13.68,13.68,0,0,1,1.81-5.64q1.8-3.6,2.76-5.35a5.92,5.92,0,0,1-1.21.15c-1,0-1.45-.38-1.45-1.15,0-.57.4-1,1.2-1.21a2.32,2.32,0,0,0,.45,0h2.92c.6-.77,1.28-1.65,2-2.66.94-1.2,1.58-1.8,1.91-1.8a2.82,2.82,0,0,1,1.26.4c.5.27.75.58.75,1s-.8,1.46-2.41,3.26C207,75.94,208.09,76,209.49,76Z" style="fill:#bd1622"/><path d="M224.4,81.47c0,1.18-1.12,3.13-3.36,5.88-2.65,3.24-4.91,4.87-6.78,4.87h-.8a2.3,2.3,0,0,1-2.06-1.36,3.87,3.87,0,0,1-.6-2.11q0-3,4.39-8.46t7.1-5.44c1.71,0,2.56.9,2.56,2.71a8.37,8.37,0,0,1-.25,1.81q0,.15,1,.15a7,7,0,0,0,2.76-1q-.06.85-4,2.46A2.14,2.14,0,0,1,224.4,81.47Zm-3.26-2.61c-1.14,0-2.75,1.34-4.85,4s-3.13,4.65-3.13,5.92.4,1.91,1.2,1.91q2.16,0,5.47-3.91t3.32-5.63A7.17,7.17,0,0,1,221.14,78.86Z" style="fill:#bd1622"/><path d="M259.34,91.51q-3.42,0-3.42-3.16a11.93,11.93,0,0,1,1.61-4.94,30.33,30.33,0,0,1,3.36-5.3,29.67,29.67,0,0,0-7.17,5.45A22.53,22.53,0,0,0,248,91.82a.93.93,0,0,1-.85.4c-.8,0-1.2-.46-1.2-1.36a24.38,24.38,0,0,1,2.25-6.32l3.27-6.73a35.74,35.74,0,0,0-6.65,5.5q-2.75,2.93-5.07,5.9c-1.56,2-2.44,3-2.64,3a1.4,1.4,0,0,1-1.13-.61,1.92,1.92,0,0,1-.48-1.2q0-.9,2.61-6.63l-3,3.17c-.73.73-1.19,1.1-1.38,1.1s-.27-.11-.27-.33a1.08,1.08,0,0,1,.4-.72,41,41,0,0,0,3.31-3.72c1-1.24,2.58-3.44,4.82-6.62a1.81,1.81,0,0,1,1.56-.76c.67,0,1,.32,1,1a38.24,38.24,0,0,1-2.66,4.89,35.2,35.2,0,0,0-3,5.7q2.06-2.27,6.17-6.08,6.18-5.71,8.13-5.72a1.92,1.92,0,0,1,1.11.35,1,1,0,0,1,.5.78,18.91,18.91,0,0,1-2,3.79,40.8,40.8,0,0,0-2.11,4.12c3.72-3.11,5.58-4.69,5.58-4.72,3.14-2.44,5.4-3.67,6.77-3.67a1.92,1.92,0,0,1,1.13.38,1.08,1.08,0,0,1,.53.88q0,.1-3.26,4.24t-3.67,6.8a1.57,1.57,0,0,0,.35,1.36,2.32,2.32,0,0,0,1.64.45,7,7,0,0,0,3.46-1.63A26.63,26.63,0,0,0,268,84.34c.6-.67,1-1,1.23-1s.33.09.33.25a1.26,1.26,0,0,1-.45.81,30.19,30.19,0,0,1-5.3,5Q260.95,91.51,259.34,91.51Z" style="fill:#bd1622"/><path d="M283.73,77.11l.71-.15a1.56,1.56,0,0,1,1.05.45c.33.3.5.53.5.7A49.12,49.12,0,0,1,282.88,83c-2.08,3.06-3.11,5.19-3.11,6.4a.79.79,0,0,0,.05.3c.16.77.53,1.15,1.1,1.15q2.61,0,9.54-8.63a.42.42,0,0,1,.35-.2c.13,0,.2.12.2.37a1.83,1.83,0,0,1-.45,1q-6.42,8.58-9.79,8.59a2.22,2.22,0,0,1-.85-.16,3.24,3.24,0,0,1-2.21-3.31,7.52,7.52,0,0,1,.2-1.7l-3.11,3q-3,2.61-4.29,2.61a4.32,4.32,0,0,1-2.54-.86,3.15,3.15,0,0,1-1.35-2.66q0-3.66,5.12-8.76T281.12,75a2.2,2.2,0,0,1,2.21,1.15c.1.27.18.5.25.68S283.7,77.11,283.73,77.11Zm-15,12.35q0,1.8,1.26,1.8,2.91,0,7.93-6.37l5.32-7.33a1.38,1.38,0,0,0-1.3-.7q-3.07,0-8.14,4.74T268.72,89.46Z" style="fill:#bd1622"/><path d="M298,92.72q-4,0-6.73-6.28c-.47.71-1.52,2.68-3.16,5.93-1.21-.47-1.81-1.11-1.81-1.91q0-2.16,6.48-11.85t8.88-11.39a1.49,1.49,0,0,1,.81-.15c1,0,1.55.27,1.55.8q0,.41-3.49,4.52a42,42,0,0,0-3.89,5c3.05-1.57,5.47-2.36,7.28-2.36a3.44,3.44,0,0,1,2.66,1.25,3.11,3.11,0,0,1,1.05,2.16v.3q-.39,2.87-4,4.72A11.58,11.58,0,0,1,298.19,85a6.91,6.91,0,0,1-3.52-.65.44.44,0,0,0-.47.15.47.47,0,0,0-.08.5q1.41,6.23,4.67,6.22a8.34,8.34,0,0,0,4.39-1.9,31.39,31.39,0,0,0,5.6-5.38,1,1,0,0,1,.63-.35.25.25,0,0,1,.27.28,1.55,1.55,0,0,1-.35.78,34,34,0,0,1-5.12,5.22C301.77,91.76,299.69,92.72,298,92.72Zm7.23-15.36a1.08,1.08,0,0,0-.46-.8,1.42,1.42,0,0,0-.95-.41,13.38,13.38,0,0,0-6.5,2.26c-2.53,1.51-4.07,3.21-4.64,5.12.3,0,1.1,0,2.41.15A14.19,14.19,0,0,0,301,81.83Q305.22,79.72,305.22,77.36Z" style="fill:#bd1622"/><path d="M310,92.77a3.18,3.18,0,0,1-1-.15q-3.21-.9-3.21-3.62,0-3.51,4.42-8.13t7.93-4.62a2.77,2.77,0,0,1,1.88.63,2,2,0,0,1,.73,1.53c0,1.88-1.42,3.67-4.24,5.37s-5.13,2.56-6.91,2.56a2.15,2.15,0,0,1-.7-.1,5.85,5.85,0,0,0-.75,2.86c0,1.74.83,2.61,2.48,2.61s3.81-1.12,6.45-3.36a32.19,32.19,0,0,0,5.22-5.22q.45-.6.78-.6t.33.3a1.72,1.72,0,0,1-.4.85A30.94,30.94,0,0,1,316.51,90Q312.7,92.77,310,92.77Zm9.49-14.46c0-.4-.43-.6-1.28-.6s-2.07.65-3.64,2a22.3,22.3,0,0,0-4.92,5.47,2,2,0,0,0,.66.1q1.91,0,5.09-2a8.92,8.92,0,0,0,4-4.45A1.12,1.12,0,0,0,319.52,78.31Z" style="fill:#bd1622"/><path d="M344.37,92.42a7.64,7.64,0,0,1-1.08,0,2.71,2.71,0,0,1-1.66-.65,2.07,2.07,0,0,1-.83-1.69,8.09,8.09,0,0,1,.38-2.28c.25-.84.43-1.47.53-1.91q-5.77,6.74-9,6.73c-1.37,0-2.12-.85-2.26-2.56v-.35q0-2.16,2.61-5.83a37.13,37.13,0,0,0-3,3,.69.69,0,0,1-.5.2c-.13,0-.2-.09-.2-.25a1.87,1.87,0,0,1,.45-.86l6.93-8.13a3.63,3.63,0,0,1,2.66-1.5q1.35,0,1.35.9a.91.91,0,0,1-.3.65,41,41,0,0,0-5,6.17q-3,4.32-3,6.38,0,.9.6.9c1.41,0,3.45-1.38,6.13-4.16q1.39-1.41,5.22-6.2c2.54-3.2,4.22-4.8,5-4.8,1.2,0,1.81.47,1.81,1.41,0,.34-.71,1.3-2.11,2.91q-2.87,3.47-4.37,5.65a6.91,6.91,0,0,0-1.51,3.54c0,.9.26,1.35.76,1.35a1.91,1.91,0,0,0,.8-.2q3.46-1.5,8.28-7a.84.84,0,0,1,.6-.35c.21,0,.31.11.31.33a1.16,1.16,0,0,1-.36.73,49.31,49.31,0,0,1-5.07,5Q345.57,92.17,344.37,92.42Z" style="fill:#bd1622"/><path d="M370.57,80.77q0,4.07-4.64,7.71c-3.1,2.42-5.78,3.64-8.06,3.64a13,13,0,0,1-3.29-.3A5.35,5.35,0,0,1,352.3,90,12.63,12.63,0,0,0,350,93.6a11.42,11.42,0,0,0-1.46,4.94,5.23,5.23,0,0,0,1,2.51.34.34,0,0,1-.15.43.87.87,0,0,1-.38.17.4.4,0,0,1-.22-.05c-1.41-.77-2.11-2.26-2.11-4.49s1.85-6.07,5.54-11.54,6.25-8.45,7.66-8.91a3.91,3.91,0,0,1,.65-.1c.57,0,.85.61.85,1.85a5.19,5.19,0,0,1,2.06-1,12.11,12.11,0,0,1,2.71-.5,5,5,0,0,1,3.14,1A3.31,3.31,0,0,1,370.57,80.77Zm-2.56-.5c0-1.27-.75-1.91-2.26-1.91a8.8,8.8,0,0,0-4.11,1c-.57.26-2.15,1.74-4.72,4.41s-3.87,4.4-3.87,5.17c0,.61.46,1.06,1.38,1.36a9,9,0,0,0,2.79.45c1.84,0,4.1-1,6.78-3.14S368,83.05,368,80.27Z" style="fill:#bd1622"/><path d="M80.06,149.15c-8.19,0-14.35-12.46-14.35-26.11s6.16-26,14.35-26c3.85,0,7.63,2.52,10.43,7.84a1.83,1.83,0,0,1,.21.77,1.4,1.4,0,0,1-1.4,1.4,1.35,1.35,0,0,1-1.26-.84c-2.24-4.27-5.11-6.44-8-6.44-6.72,0-11.69,11.69-11.69,23.31s5.18,23.38,11.69,23.38c2.87,0,5.74-2.1,8-6.51a1.26,1.26,0,0,1,1.26-.77,1.35,1.35,0,0,1,1.4,1.33,1.83,1.83,0,0,1-.21.77C87.69,146.56,83.91,149.15,80.06,149.15Z" style="fill:#bd1622"/><path d="M111.14,138.44v9.66a1.37,1.37,0,1,1-2.73,0v-9.66h-8.19v9.66a1.4,1.4,0,0,1-2.8,0v-9.66H94.9a1.37,1.37,0,1,1,0-2.73h2.52V108.48a1.4,1.4,0,1,1,2.8,0v27.23h8.19V108.48a1.32,1.32,0,0,1,1.33-1.47,1.31,1.31,0,0,1,1.4,1.47v27.23h2.59a1.37,1.37,0,1,1,0,2.73Z" style="fill:#bd1622"/><path d="M131.09,148.17a1.4,1.4,0,0,1-1.4,1.4,1.45,1.45,0,0,1-1.4-1.12c-2.1-7.14-4.21-13.79-7.63-16.31v16.24a1.37,1.37,0,1,1-2.74,0V108.27a1.35,1.35,0,0,1,1.41-1.33c3.29,0,9.8,5.11,9.8,12.18a12.51,12.51,0,0,1-6.51,11c4.2,2.73,6.09,9,7.77,15.26C131.16,147.89,131.09,148,131.09,148.17Zm-10.43-20.23a9.65,9.65,0,0,0,0-17.64Z" style="fill:#bd1622"/><path d="M137.46,148.1a1.37,1.37,0,1,1-2.73,0V108.48a1.37,1.37,0,1,1,2.73,0Z" style="fill:#bd1622"/><path d="M158.53,111.91a1.34,1.34,0,0,1-2.52.63,7.07,7.07,0,0,0-5.74-3,6.3,6.3,0,0,0-6.44,6.23,15.55,15.55,0,0,0,2.73,7.91l9.38,14.77a7.22,7.22,0,0,1,1.19,3.71c0,3.92-3.64,6.93-7.35,6.93a7.06,7.06,0,0,1-5.68-3.5,2,2,0,0,1-.27-.7,1.4,1.4,0,0,1,1.4-1.4,1.42,1.42,0,0,1,1.11.7,3.93,3.93,0,0,0,3.58,2.17,4.45,4.45,0,0,0,4.41-4.2,6.44,6.44,0,0,0-.63-2.24l-9.45-14.77a18.78,18.78,0,0,1-3.16-9.38,9,9,0,0,1,9.25-9,9.63,9.63,0,0,1,7.91,4.27A1.67,1.67,0,0,1,158.53,111.91Z" style="fill:#bd1622"/><path d="M169.44,109.53v38.29a1.25,1.25,0,0,1-1.4,1.4,1.27,1.27,0,0,1-1.33-1.4V109.53h-4a1.37,1.37,0,1,1,0-2.73h10.64a1.3,1.3,0,0,1,1.47,1.4,1.32,1.32,0,0,1-1.47,1.33Z" style="fill:#bd1622"/><path d="M201.72,148.1a1.37,1.37,0,1,1-2.73,0V114c0-2-1.26-4.2-3.3-4.2-1.33,0-2.1,1-3.15,2a6.7,6.7,0,0,1,.36,2.17V148.1a1.37,1.37,0,1,1-2.73,0V114c0-2-1.2-4.2-3.37-4.2-1.33,0-2.17.91-3.22,2V148.1a1.31,1.31,0,0,1-1.4,1.47,1.32,1.32,0,0,1-1.33-1.47V114.64l-.77.77a1.46,1.46,0,0,1-1.05.49,1.35,1.35,0,0,1-1.4-1.33,1.46,1.46,0,0,1,.49-1l2.73-2.8v-2.24a1.26,1.26,0,0,1,1.33-1.4,1.45,1.45,0,0,1,1.4,1.12,5.81,5.81,0,0,1,3.29-1.12,5.47,5.47,0,0,1,4.27,2.17l.21-.21a6.18,6.18,0,0,1,4.34-2c3.15,0,6,2.8,6,6.93Z" style="fill:#bd1622"/><path d="M222.22,138.16v9.66a1.42,1.42,0,0,1-1.4,1.47c-.77,0-1.33-.42-1.33-1.47v-9.66h-8.33v9.66a1.32,1.32,0,0,1-1.4,1.4c-.77,0-1.33-.35-1.33-1.4v-9.66h-2.52a1.27,1.27,0,0,1-1.4-1.33,1.32,1.32,0,0,1,1.4-1.4h2.52v-21.7a6.66,6.66,0,0,1,6.93-6.86c3.5,0,6.86,2.17,6.86,6.86v21.7h2.45c1.05,0,1.33.56,1.33,1.33a1.27,1.27,0,0,1-1.33,1.4Zm-2.73-24.43a3.93,3.93,0,0,0-4.13-4.13,4,4,0,0,0-4.2,4.13v21.7h8.33Z" style="fill:#bd1622"/><path d="M246.23,111.91a1.34,1.34,0,0,1-2.52.63,7.07,7.07,0,0,0-5.74-3,6.31,6.31,0,0,0-6.44,6.23,15.55,15.55,0,0,0,2.73,7.91l9.38,14.77a7.22,7.22,0,0,1,1.19,3.71c0,3.92-3.64,6.93-7.35,6.93a7,7,0,0,1-5.67-3.5,1.87,1.87,0,0,1-.28-.7,1.4,1.4,0,0,1,1.4-1.4,1.45,1.45,0,0,1,1.12.7,3.93,3.93,0,0,0,3.57,2.17,4.45,4.45,0,0,0,4.41-4.2,6.44,6.44,0,0,0-.63-2.24L232,125.14a18.76,18.76,0,0,1-3.15-9.38,9,9,0,0,1,9.24-9,9.63,9.63,0,0,1,7.91,4.27A1.67,1.67,0,0,1,246.23,111.91Z" style="fill:#bd1622"/><path d="M277.8,99.59v48.23a1.37,1.37,0,1,1-2.73,0V99.59h-5.32a1.32,1.32,0,0,1-1.47-1.33,1.31,1.31,0,0,1,1.47-1.4h13.3a1.31,1.31,0,0,1,1.47,1.4,1.32,1.32,0,0,1-1.47,1.33Z" style="fill:#bd1622"/><path d="M297.05,148.17a1.4,1.4,0,0,1-1.4,1.4,1.45,1.45,0,0,1-1.4-1.12c-2.1-7.14-4.2-13.79-7.63-16.31v16.24a1.37,1.37,0,1,1-2.73,0V108.27a1.35,1.35,0,0,1,1.4-1.33c3.29,0,9.8,5.11,9.8,12.18a12.51,12.51,0,0,1-6.51,11c4.2,2.73,6.09,9,7.77,15.26C297.12,147.89,297.05,148,297.05,148.17Zm-10.43-20.23a9.65,9.65,0,0,0,0-17.64Z" style="fill:#bd1622"/><path d="M312.45,149.43a14.22,14.22,0,0,1-13.93-13.79c0-5.39,3.08-11.06,8.54-13.16a8,8,0,0,1-3.5-6.93,8.7,8.7,0,0,1,8.54-8.47c3.85,0,6.3,2.17,6.3,3.57,0,.77-.35,1.19-1.12,1.19a1.42,1.42,0,0,1-1-.42,4.45,4.45,0,0,0-4-1.68,6.26,6.26,0,0,0-6,6,6,6,0,0,0,5.88,5.67c1.33,0,2,.7,2,1.33s-.63,1.4-1.82,1.4c-6.72,0-11.06,5.88-11.06,11.41a11.34,11.34,0,0,0,11.34,11.13,11.64,11.64,0,0,0,8.05-3.29,1.38,1.38,0,0,1,1-.42,1.29,1.29,0,0,1,1.33,1.33,1.42,1.42,0,0,1-.42,1.05A14.08,14.08,0,0,1,312.45,149.43Z" style="fill:#bd1622"/><path d="M339.61,149.43a14.22,14.22,0,0,1-13.93-13.79c0-5.39,3.08-11.06,8.54-13.16a8,8,0,0,1-3.5-6.93,8.7,8.7,0,0,1,8.54-8.47c3.85,0,6.3,2.17,6.3,3.57,0,.77-.35,1.19-1.12,1.19a1.42,1.42,0,0,1-1.05-.42,4.45,4.45,0,0,0-4-1.68,6.26,6.26,0,0,0-6,6,6,6,0,0,0,5.88,5.67c1.33,0,2,.7,2,1.33s-.63,1.4-1.82,1.4c-6.72,0-11.06,5.88-11.06,11.41a11.34,11.34,0,0,0,11.34,11.13,11.64,11.64,0,0,0,8.05-3.29,1.38,1.38,0,0,1,1-.42,1.29,1.29,0,0,1,1.33,1.33,1.42,1.42,0,0,1-.42,1.05A14.08,14.08,0,0,1,339.61,149.43Z" style="fill:#bd1622"/><path d="M355.57,149.5a2.73,2.73,0,1,1,2.8-2.73A2.69,2.69,0,0,1,355.57,149.5Zm1.4-10.57a1.36,1.36,0,0,1-1.4,1.54,1.39,1.39,0,0,1-1.33-1.54V97.35a1.39,1.39,0,0,1,1.33-1.54,1.36,1.36,0,0,1,1.4,1.54Z" style="fill:#bd1622"/></svg>