<svg xmlns="http://www.w3.org/2000/svg" viewBox="0 0 168.59 240.53"><path d="M89.5,0c-.26.09-.3.93,0,.93.1,0,.18.25.18.54V2H88.48c-.66,0-1.16.08-1.16.18s-.2.18-.44.18-.45.1-.45.26-.17.27-.44.27-.45.1-.45.27-.17.26-.44.26-.45.08-.45.18-.24.18-.53.18-.53.09-.53.27-.08.26-.18.26-.18.2-.18.45-.08.44-.53.44-.54,0-.54.71c0,.4-.08.72-.18.72s-.17.32-.17.71-.08.71-.27.71-.27.17-.27.44S81.19,9,81.1,9s-.18.32-.18.71-.08.71-.27.71-.27.36-.27,2.13.05,2.14.27,2.14.27.19.27.63c0,.7.4,1.24.8,1.08s.34-.89,0-1.18a1,1,0,0,1-.27-.72.85.85,0,0,0-.18-.61,3.71,3.71,0,0,1-.17-1.43c0-.77.07-1.33.17-1.33s.18-.28.18-.63.1-.66.27-.73A.46.46,0,0,0,82,9.34a.78.78,0,0,1,.27-.54,1.43,1.43,0,0,0,.27-1,1.5,1.5,0,0,1,.18-.88.51.51,0,0,0,.17-.38,7.69,7.69,0,0,1,2.38-2.37.74.74,0,0,0,.47-.27.81.81,0,0,1,.55-.27c.19,0,.34-.06.34-.14,0-.5,1.64-.84,2-.42s.37.56-.31.56c-.38,0-.65.1-.71.27a.49.49,0,0,1-.45.27.63.63,0,0,0-.46.17.51.51,0,0,1-.4.18,11.38,11.38,0,0,0-2.89,2.9.74.74,0,0,1-.27.48,1,1,0,0,0-.27.72.9.9,0,0,1-.17.61,1.52,1.52,0,0,0-.18.88,1.4,1.4,0,0,1-.28,1c-.4.34-.29,2.19.14,2.27.27,0,.32-.09.32-1s.06-1.08.26-1.08.27-.22.27-.89c0-.49.08-.89.18-.89s.18-.2.18-.44.1-.45.26-.45.27-.2.27-.71.08-.71.18-.71.17-.12.17-.27a.27.27,0,0,1,.27-.26A.27.27,0,0,0,85,6.4a.27.27,0,0,1,.26-.27c.15,0,.27-.08.27-.18s.2-.17.45-.17.44-.1.44-.27.17-.27.45-.27.44-.08.44-.17.12-.18.27-.18a.27.27,0,0,0,.26-.27c0-.39,2.05-.37,2.45,0,.21.21.5.26,1,.2s.77,0,.77.08c0,.36,1.15,1.2,1.67,1.22s1,.67,1,1.82c0,1.3.36,1.91.79,1.32.33-.44.63-.37.63.14,0,.28.1.45.27.45s.27.43.27,2.84,0,2.85-.27,2.85a.26.26,0,0,0-.27.25.44.44,0,0,1-.26.35.5.5,0,0,0-.27.46c0,.34-.11.36-1.87.36-1.54,0-1.87-.05-1.87-.27s-.18-.26-.62-.26-.63-.08-.73-.45-.69-.6-1.24-.18a4.55,4.55,0,0,1-3,0c-.85-.45-1.67-.36-1.67.17,0,.25.08.45.18.45s.18.2.18.44-.09.45-.19.45a1,1,0,0,1-.7-.7c0-.11-.12-.19-.27-.19s-.26-.17-.26-.45c0-.54-.46-.6-.63-.07a.73.73,0,0,0,.16.68c.31.34.38.83.13,1-.08.05-.3-.1-.49-.35-.36-.48-1-.59-1-.17,0,.17-.17.27-.45.27s-.44.1-.44.26-.2.27-.71.27-.72.07-.72.27-.17.26-.53.26-.53.08-.53.18-.2.18-.45.18-.44.1-.44.27-.08.26-.18.26-.18.12-.18.27a.27.27,0,0,1-.26.27c-.21,0-.27.24-.27,1.15s-.06,1.16-.27,1.16-.26.17-.26.44.1.45.26.45.27.17.27.44-.1.45-.27.45-.26.48-.26,3.29,0,3.29.26,3.29.27.21.27.89.06.88.27.88a.27.27,0,0,1,.26.27c0,.19.19.27.63.27s.62-.08.62-.27a.27.27,0,0,1,.26-.27c.17,0,.27-.16.27-.44s.1-.44.27-.44.26-.17.26-.45.08-.44.18-.44.18.32.18.71.07.71.27.71.26.08.26.18-.12.17-.26.17-.27.18-.27.54-.07.53-.44.53-.45.08-.45.18-.12.18-.27.18a.26.26,0,0,0-.26.26c0,.17-.17.27-.45.27s-.44.1-.44.27-.2.26-.71.26-.71.08-.71.18-.32.18-.72.18-.71.07-.71.27-.21.26-.89.26c-.49,0-.89.08-.89.18s-.2.18-.44.18-.44.1-.44.27-.41.26-2.58.26-2.58,0-2.58-.26S66.62,36,65.71,36c-.65,0-1.15-.08-1.15-.18s-.32-.18-.72-.18-.71-.07-.71-.26-.24-.27-1.15-.27c-.65,0-1.16-.08-1.16-.18a16.14,16.14,0,0,0-3.73-.18,16.27,16.27,0,0,0-3.74.18c0,.1-.24.18-.53.18s-.53.09-.53.27-.17.26-.45.26-.44.08-.44.18-.32.18-.72.18-.71.07-.71.27-.16.26-.44.26-.45.1-.45.27a.27.27,0,0,1-.26.27c-.15,0-.27.08-.27.17s-.2.18-.44.18-.45.1-.45.27-.17.27-.44.27-.45.1-.45.26-.08.27-.19.27a1,1,0,0,0-.7.7.19.19,0,0,1-.19.19c-.33,0-1.23,1-1.23,1.41,0,.21-.11.37-.27.37s-.26.17-.26.53-.08.53-.18.53-.18.2-.18.45-.1.44-.27.44-.26.08-.26.18-.12.18-.27.18-.27.2-.27.71-.08.71-.17.71-.18.24-.18.54-.09.53-.27.53-.27.22-.27.89-.06.89-.26.89-.27.5-.27,3.47,0,3.46.27,3.46.26.2.26.71.08.72.27.72.27.17.27.53.08.53.18.53.17.2.17.45.1.44.27.44.27.17.27.45.09.44.44.44.45.09.45.45.1.44.26.44.27.17.27.44.08.45.18.45.18.12.18.27a.26.26,0,0,0,.26.26.27.27,0,0,1,.27.27.27.27,0,0,0,.27.27c.16,0,.26.16.26.44s.08.45.18.45.18.12.18.26a.27.27,0,0,0,.27.27c.16,0,.26.17.26.44s.09.45.19.45a1,1,0,0,1,.7.7c0,.1.12.19.27.19s.26.27.26,1.42,0,1.42-.26,1.42-.27.28-.27,1.43c0,.83-.07,1.42-.18,1.42s-.17.4-.17.89c0,.67-.07.89-.27.89s-.27.71-.27,5.33,0,5.34.27,5.34.27.27.27,1.42c0,.83.07,1.42.17,1.42s.18.6.18,1.43c0,1.14.05,1.42.27,1.42s.26.25.26,1.15c0,.66.08,1.16.18,1.16s.18.32.18.71.07.71.27.71.26.2.26.71.08.72.27.72.27.16.27.44.08.44.18.44.17.33.17.72.08.71.27.71.27.17.27.44.1.45.26.45.27.16.27.44.08.45.18.45.18.24.18.53c0,.45.07.53.44.53s.45.09.45.45.1.44.26.44.27.17.27.45.1.44.27.44.26.17.26.45.08.44.18.44.18.12.18.27a.26.26,0,0,0,.26.26c.17,0,.27.17.27.45s.1.44.27.44a.27.27,0,0,1,.26.27c0,.15.09.27.18.27s.18.5.18,1.15-.08,1.16-.18,1.16-.18.12-.18.27a.26.26,0,0,1-.26.26c-.15,0-.27.08-.27.18s-.2.18-.44.18-.45.1-.45.26a.27.27,0,0,1-.26.27.27.27,0,0,0-.27.27c0,.16-.17.27-.45.27s-.44.08-.44.17-.12.18-.27.18a.27.27,0,0,0-.26.27c0,.15-.16.26-.38.26a1.37,1.37,0,0,0-.8.45,1.34,1.34,0,0,1-.77.44c-.21,0-.37.12-.37.27s-.16.27-.44.27-.45.08-.45.17-.12.18-.26.18a.27.27,0,0,0-.27.27c0,.15-.08.27-.18.27s-.17.12-.17.26-.17.27-.46.27c-.47,0-1,.36-1,.7,0,.1-.2.19-.45.19-.47,0-1,.36-1,.7,0,.1-.12.19-.27.19s-.26.08-.26.19c0,.34-.5.7-1,.7-.29,0-.46.1-.46.26s-.08.27-.17.27-.18.12-.18.27a.27.27,0,0,1-.27.26c-.15,0-.27.08-.27.18s-.12.18-.26.18-.27.09-.27.19a1,1,0,0,1-.7.7c-.1,0-.19.12-.19.27s-.17.26-.44.26-.45.1-.45.27-.08.27-.19.27a1,1,0,0,0-.7.69.24.24,0,0,1-.26.2.27.27,0,0,0-.27.26c0,.15-.09.27-.19.27a1,1,0,0,0-.7.7.19.19,0,0,1-.19.19,1,1,0,0,0-.7.7c0,.1-.12.19-.27.19a.26.26,0,0,0-.26.26c0,.15-.09.27-.19.27-.34,0-.7.5-.7,1s-.08.45-.53.45-.54.08-.54.37-.38.88-.7.88c-.1,0-.19.2-.19.46,0,.46-.36,1-.7,1-.1,0-.19.24-.19.53,0,.46-.07.54-.44.54s-.45.09-.45.44-.07.45-.17.45a1.29,1.29,0,0,0-.89.94c0,.36-.4.84-.7.84-.11,0-.19.24-.19.53,0,.45-.07.53-.45.53s-.44.09-.44.45-.09.44-.19.44c-.34,0-.7.5-.7,1,0,.29-.1.46-.27.46s-.26.08-.26.17-.12.18-.27.18a.27.27,0,0,0-.27.27c0,.14-.08.26-.18.26s-.17.2-.17.45-.1.44-.27.44-.27.17-.27.45-.08.44-.17.44-.18.12-.18.27a.27.27,0,0,1-.27.27.27.27,0,0,0-.27.26.27.27,0,0,1-.26.27c-.19,0-.27.19-.27.64,0,.62-.32,1.14-.7,1.14-.1,0-.19.16-.19.36a1.39,1.39,0,0,1-.44.78,1.41,1.41,0,0,0-.45.61.24.24,0,0,1-.26.2c-.19,0-.27.19-.27.64,0,.62-.32,1.14-.7,1.14-.1,0-.19.2-.19.45s-.1.44-.27.44-.26.17-.26.46c0,.47-.36,1-.7,1-.11,0-.19.24-.19.54s-.09.53-.27.53-.27.17-.27.45-.08.44-.17.44-.18.2-.18.45-.1.44-.27.44-.27.17-.27.44-.08.45-.17.45-.18.12-.18.27a.27.27,0,0,1-.27.26c-.19,0-.27.2-.27.71s-.08.72-.19.72c-.38,0-.69.52-.69,1.14,0,.45-.08.63-.27.63s-.27.18-.27.54-.09.53-.26.53-.27.17-.27.45-.08.44-.18.44-.18.2-.18.44-.1.45-.26.45-.27.17-.27.44-.08.45-.18.45-.18.44-.18,1c0,.75-.06,1-.26,1s-.27.17-.27.45-.1.44-.27.44-.26.33-.26,1.87c0,1.13-.07,1.87-.18,1.87s-.18.5-.18,1.15.08,1.16.18,1.16c.28,0,.21,1.77-.08,2.06a1.15,1.15,0,0,1-.71.25c-.29,0-.46.1-.46.27s-.21.27-.89.27-.88.06-.88.26-.17.27-.45.27-.44.08-.44.18-.24.18-.54.18-.53.08-.53.26-.17.27-.45.27-.44.08-.44.18-.32.17-.71.17-.71.08-.71.27-.08.27-.18.27-.18.12-.18.26a.27.27,0,0,1-.27.27c-.14,0-.26.08-.26.18s-.12.18-.27.18a.27.27,0,0,0-.27.26c0,.15-.08.27-.17.27s-.18.12-.18.27a.27.27,0,0,1-.27.26c-.14,0-.26.08-.26.18s-.2.18-.45.18S2,172,2,172.32s-.1.45-.27.45-.27.18-.27.53-.08.54-.18.54-.17.5-.17,1.15c0,.91-.06,1.16-.27,1.16s-.27.22-.27.89-.06.89-.26.89-.27.64-.27,4.71,0,4.71.27,4.71.26.3.26,1.6,0,1.6.27,1.6.27.3.27,1.6c0,.95.07,1.6.17,1.6s.18.69.18,1.69c0,1.39.05,1.69.27,1.69s.27.25.27,1.16,0,1.16.26,1.16.27.19.27.71.08.71.18.71.18.5.18,1.15c0,.91,0,1.16.26,1.16s.27.22.27.89c0,.49.08.89.18.89s.17.32.17.71.08.71.27.71.27.2.27.71.07.71.26.71.27.17.27.45.08.44.18.44.18.32.18.71.07.72.26.72.27.17.27.53.09.53.27.53.26.17.26.45.08.44.18.44.18.2.18.45.1.44.27.44.26.17.26.45.08.44.18.44.18.32.18.71.07.71.27.71a.27.27,0,0,1,.26.27.27.27,0,0,0,.27.27c.17,0,.27.16.27.44s.08.45.17.45.18.2.18.44.1.45.27.45.27.17.27.53.08.53.26.53.27.17.27.45.08.44.18.44.17.2.17.45.11.44.27.44a.27.27,0,0,1,.27.27c0,.14.08.26.18.26s.17.2.17.45.1.44.27.44a.27.27,0,0,1,.27.27c0,.15.08.27.19.27a1,1,0,0,1,.7.7c0,.1.12.19.26.19s.27.16.27.44.09.45.44.45.45.1.45.26a.27.27,0,0,0,.27.27c.14,0,.26.08.26.18s.2.17.45.17.44.11.44.27a.27.27,0,0,0,.27.27.27.27,0,0,1,.27.26c0,.2.19.27.71.27s.71.08.71.18.2.18.44.18.45.1.45.26.17.27.44.27.45.08.45.18.32.18.71.18.71.07.71.26.71.27,5.33.27,5.34,0,5.34-.27.31-.26,1.69-.26c1,0,1.69-.08,1.69-.18s.65-.18,1.6-.18c1.3,0,1.6,0,1.6-.27s.48-.26,3.29-.26a12.66,12.66,0,0,0,3.29-.18c0-.12,2.85-.18,8.18-.18s8.18.06,8.18.18.4.18.89.18c.67,0,.89.06.89.26s.25.27,1.16.27,1.15-.06,1.15-.27.28-.26,1.42-.26,1.43.05,1.43.26.24.27,1.15.27c.66,0,1.16.08,1.16.18s.2.18.44.18.45-.08.45-.18.74-.18,1.87-.18,1.86.07,1.86.18a88.4,88.4,0,0,0,8.9.18c7.78,0,8.89,0,8.89.26s.32.27,1.86.27,1.87,0,1.87.27.33.26,1.87.26c1.13,0,1.87.07,1.87.18s.64.18,1.58.18c1.24,0,1.6.06,1.68.27s.37.26,1,.26.89.07.89.27.28.27,1.43.27c.83,0,1.42.07,1.42.17s.56.18,1.31.18c1,0,1.34.06,1.42.27s.4.27,1.27.27c.65,0,1.16.07,1.16.17s.2.18.44.18.45.1.45.27.19.26.71.26.71.09.71.2c0,.37.52.69,1.14.69.45,0,.64.08.64.27a.27.27,0,0,0,.26.27.27.27,0,0,1,.27.26c0,.17.17.27.45.27s.44.08.44.18.2.18.44.18.45.1.45.26.17.27.46.27c.47,0,1,.36,1,.7,0,.1.32.19.71.19s.71.07.71.27a.27.27,0,0,0,.27.26c.15,0,.27.08.27.18s.2.18.44.18.45.1.45.27.17.26.44.26.45.1.45.27.16.27.44.27.45.08.45.17.32.18.71.18.71.08.71.27.18.26.53.26.54.08.54.18.28.18.62.18.62.08.62.27.2.26.71.26.71.08.71.27.2.27.71.27.72.08.72.18.68.17,1.69.17c1.38,0,1.68,0,1.68.27s.46.27,3,.27,3,0,3-.27.25-.27,1.16-.27c.65,0,1.15-.07,1.15-.17s.2-.18.45-.18.44-.1.44-.27.23-.27,1-.27,1-.06,1-.26.22-.27.89-.27c.49,0,.89-.08.89-.18s.2-.18.44-.18.45-.1.45-.26.19-.27.71-.27.71-.08.71-.18.12-.17.27-.17a.27.27,0,0,0,.26-.27c0-.17.17-.27.45-.27s.44-.1.44-.26a.27.27,0,0,1,.27-.27c.15,0,.27-.08.27-.18s.2-.18.44-.18.44-.1.44-.26a.27.27,0,0,1,.27-.27.27.27,0,0,0,.27-.27c0-.15.16-.26.37-.26.39,0,.87-.39.87-.7,0-.11.12-.19.27-.19s.27-.17.27-.45.1-.44.26-.44.27-.09.27-.19a1,1,0,0,1,.7-.7c.1,0,.19-.12.19-.27a.27.27,0,0,1,.27-.27c.14,0,.26-.08.26-.19a1,1,0,0,1,.7-.69c.11,0,.19-.2.19-.45s.08-.44.18-.44.18-.12.18-.27a.27.27,0,0,1,.26-.27c.17,0,.27-.17.27-.44s.1-.45.27-.45a.26.26,0,0,0,.26-.26c0-.15.08-.27.18-.27s.18-.12.18-.27a.27.27,0,0,1,.27-.26c.16,0,.26-.17.26-.45s.09-.44.19-.44c.34,0,.7-.5.7-1,0-.25.09-.46.19-.46a1,1,0,0,0,.7-.69c0-.11.12-.19.27-.19s.27-.17.27-.45.1-.44.26-.44.27-.09.27-.19a1,1,0,0,1,.7-.7c.1,0,.19-.32.19-.71s.07-.72.27-.72.26-.19.26-.71.08-.71.18-.71.18-.32.18-.71.07-.71.26-.71.27-.2.27-.71.08-.71.18-.71.18-.32.18-.72.07-.71.26-.71.27-.21.27-.89.07-.89.27-.89.26-.32.26-1.86c0-1.13.07-1.87.18-1.87a5.6,5.6,0,0,0,.18-2.13c0-1.78,0-2.14.27-2.14s.26-.42.26-2.75,0-2.76-.26-2.76-.27-.33-.27-1.87c0-1.12-.07-1.87-.18-1.87s-.18-.32-.18-.71-.07-.71-.26-.71-.27-.2-.27-.71-.07-.71-.27-.71-.26-.17-.26-.45-.08-.44-.18-.44-.18-.24-.18-.53-.09-.54-.27-.54-.26-.16-.26-.4a1.13,1.13,0,0,0-.45-.74,1.09,1.09,0,0,1-.44-.75c0-.25-.11-.42-.27-.42s-.27-.17-.27-.44-.08-.45-.17-.45-.18-.12-.18-.27a.27.27,0,0,0-.27-.26c-.14,0-.26-.08-.26-.18s-.12-.18-.27-.18-.27-.08-.27-.19a1,1,0,0,0-.7-.7c-.1,0-.19-.24-.19-.53,0-.45-.07-.53-.44-.53s-.45-.09-.45-.45-.09-.44-.44-.44-.45-.1-.45-.27A.27.27,0,0,0,160,184c-.15,0-.27-.08-.27-.17s-.2-.18-.44-.18-.45-.1-.45-.27a.27.27,0,0,0-.26-.27c-.15,0-.27-.08-.27-.17s-.2-.18-.45-.18-.44-.1-.44-.27-.17-.27-.45-.27-.44-.1-.44-.26-.18-.27-.53-.27-.54-.08-.54-.18-.28-.17-.62-.17-.62-.08-.62-.27-.2-.27-.71-.27-.71-.07-.71-.26a.27.27,0,0,0-.27-.27c-.23,0-.27-.4-.27-2.49s0-2.49-.26-2.49-.27-.28-.27-1.42c0-.83-.08-1.43-.18-1.43s-.18-.44-.18-1c0-.76-.06-1-.26-1s-.27-.25-.27-1.16.06-1.15.27-1.15.26-.17.26-.45.08-.44.18-.44.18-.32.18-.72.07-.71.27-.71.26-.16.26-.44.1-.45.27-.45.27-.16.27-.44.08-.44.17-.44.18-.25.18-.54.09-.53.27-.53.26-.2.26-.71.08-.71.27-.71.27-.19.27-.63.08-.62.18-.62.17-.53.17-1.24c0-1,.06-1.25.27-1.25s.27-.25.27-1.16c0-.65.07-1.15.18-1.15a4.72,4.72,0,0,0,.17-1.87c0-1.54,0-1.87.27-1.87s.27-.53.27-3.73,0-3.74-.27-3.74-.27-.21-.27-.88c0-.49-.08-.89-.17-.89s-.18-.6-.18-1.43c0-1.14-.05-1.42-.27-1.42s-.27-.25-.27-1.16c0-.65-.07-1.15-.17-1.15s-.18-.32-.18-.71-.08-.71-.27-.71-.27-.22-.27-.89-.06-.89-.26-.89-.27-.2-.27-.71-.08-.71-.18-.71-.17-.25-.17-.54-.09-.53-.27-.53-.27-.19-.27-.62-.08-.63-.26-.63a.27.27,0,0,1-.27-.26c0-.15-.08-.27-.18-.27s-.18-.32-.18-.71-.07-.71-.26-.71a.27.27,0,0,1-.27-.27c0-.15-.08-.27-.18-.27s-.18-.2-.18-.44-.1-.45-.26-.45-.27-.08-.27-.17-.12-.18-.27-.18-.26-.18-.26-.54-.08-.53-.18-.53-.18-.2-.18-.44-.1-.45-.27-.45a.26.26,0,0,1-.26-.26.27.27,0,0,0-.27-.27c-.15,0-.27-.16-.27-.37,0-.39-.38-.88-.69-.88-.11,0-.2-.2-.2-.45,0-.47-.35-1-.69-1-.11,0-.19-.12-.19-.27s-.17-.26-.45-.26-.44-.09-.44-.45-.1-.44-.27-.44-.27-.17-.27-.45-.1-.44-.26-.44a.27.27,0,0,1-.27-.27c0-.14-.08-.26-.18-.26s-.18-.12-.18-.27-.16-.27-.44-.27-.45-.08-.45-.18-.12-.17-.26-.17-.27-.18-.27-.54-.07-.53-.44-.53-.45-.09-.45-.45-.1-.44-.27-.44-.26-.08-.26-.18-.2-.18-.45-.18-.44-.1-.44-.26a.27.27,0,0,0-.27-.27c-.14,0-.26-.08-.26-.19a1,1,0,0,0-.7-.7c-.11,0-.19-.12-.19-.27a.27.27,0,0,0-.27-.26c-.15,0-.27-.09-.27-.19a1,1,0,0,0-.7-.7c-.1,0-.19-.12-.19-.27s-.08-.26-.19-.26a1,1,0,0,1-.7-.7c0-.11-.2-.19-.44-.19s-.45-.1-.45-.27a.27.27,0,0,0-.26-.27c-.15,0-.27-.08-.27-.18s-.12-.17-.27-.17-.26-.09-.26-.19a2.94,2.94,0,0,0-1.23-1.24.19.19,0,0,1-.2-.19,1,1,0,0,0-.69-.69c-.11,0-.19-.12-.19-.27s-.08-.27-.18-.27-.18-.12-.18-.27a.27.27,0,0,0-.27-.26c-.14,0-.26-.08-.26-.18s-.12-.18-.27-.18a.27.27,0,0,1-.27-.26c0-.15-.08-.27-.17-.27s-.18-.2-.18-.45-.1-.44-.27-.44-.27-.25-.27-1.16,0-1.15-.26-1.15a.27.27,0,1,1,0-.54c.2,0,.26-.21.26-.88s.07-.89.27-.89.27-.2.27-.72.08-.71.18-.71.17-.24.17-.53.09-.53.27-.53.27-.22.27-.89.06-.89.26-.89.27-.17.27-.45.08-.44.18-.44.18-.32.18-.71.07-.71.26-.71.27-.23.27-1c0-.54.08-1,.18-1s.17-.2.17-.45.11-.44.27-.44.27-.22.27-.89.06-.89.27-.89.26-.23.26-1c0-.53.08-1,.18-1s.18-.2.18-.45.1-.44.26-.44.27-.25.27-1.16.06-1.16.27-1.16.26-.27.26-1.42c0-.83.08-1.42.18-1.42a9.67,9.67,0,0,0,.18-2.85c0-2.41,0-2.84.27-2.84s.26-.3.26-1.6-.05-1.6-.26-1.6-.27-.2-.27-.71.07-.72.27-.72.26-.27.26-1.42c0-.83.08-1.42.18-1.42s.18-.28.18-.62.08-.63.27-.63a.26.26,0,0,0,.26-.26.27.27,0,0,1,.27-.27c.15,0,.27-.09.27-.19a1,1,0,0,1,.7-.7c.1,0,.19-.12.19-.27A.26.26,0,0,1,139,65c.15,0,.27-.09.27-.19a1,1,0,0,1,.7-.7.2.2,0,0,0,.19-.19,1,1,0,0,1,.7-.7c.1,0,.19-.12.19-.27a.26.26,0,0,1,.26-.26c.17,0,.27-.17.27-.45s.08-.44.18-.44.18-.12.18-.27a.27.27,0,0,1,.26-.27.27.27,0,0,0,.27-.26c0-.15.09-.27.19-.27.31,0,.7-.48.7-.88,0-.21.12-.37.27-.37s.26-.16.26-.45c0-.47.36-1,.7-1,.11,0,.19-.2.19-.44s.1-.45.27-.45.27-.18.27-.53.08-.53.17-.53.18-.4.18-.89c0-.68.07-.89.27-.89s.27-.49.27-3.29,0-3.29-.27-3.29-.27-.2-.27-.71-.08-.72-.18-.72-.17-.2-.17-.44-.1-.44-.27-.44-.27-.23-.27-1-.06-1-.26-1-.27-.17-.27-.45-.08-.44-.18-.44-.18-.2-.18-.44-.1-.45-.26-.45-.27-.09-.27-.19a1,1,0,0,0-.7-.7c-.11,0-.19-.45-.19-1.15,0-.91-.06-1.16-.27-1.16a.27.27,0,0,1-.26-.27c0-.16-.17-.26-.45-.26s-.44-.11-.44-.27a.27.27,0,0,0-.27-.27c-.15,0-.27-.08-.27-.18s-.56-.17-1.33-.17c-1.07,0-1.33-.06-1.33-.27a.27.27,0,0,0-.27-.27.27.27,0,0,1-.27-.26c0-.15-.08-.27-.19-.27a1,1,0,0,1-.7-.7c0-.12-.53-.19-1.42-.19-1.14,0-1.42.05-1.42.27s-.17.26-.45.26-.44-.1-.44-.26-.61-.27-4.45-.27-4.44,0-4.44.27-.23.26-1,.26c-.54,0-1,.08-1,.18s-.2.18-.44.18-.45.1-.45.27-.42.26-2.75.26-2.76,0-2.76-.26-.23-.27-1-.27c-.54,0-1-.08-1-.18s-.4-.18-.89-.18c-.67,0-.89-.06-.89-.26s-.3-.27-1.69-.27c-1,0-1.68-.07-1.68-.18s-.41-.18-.89-.18c-.68,0-.89-.06-.89-.26s-.17-.27-.45-.27-.44-.1-.44-.27-.2-.26-.71-.26-.72-.08-.72-.18-.32-.18-.71-.18-.71-.07-.71-.26a.27.27,0,0,0-.26-.27.27.27,0,0,1-.27-.27c0-.16-.17-.27-.45-.27s-.44-.08-.44-.44-.09-.44-.45-.44-.44-.08-.44-.64.32-1.14.7-1.14c.1,0,.19-.24.19-.54s.07-.53.44-.53.45.1.45.27a.27.27,0,0,0,.27.26.24.24,0,0,1,.26.21c0,.3.57.67,1,.68s.4,0,.4-1.86c0-1.55,0-1.87-.26-1.87s-.27-.43-.27-2.76,0-2.75-.27-2.75a.27.27,0,0,1-.26-.27c0-.15-.08-.27-.18-.27s-.18-.32-.18-.71-.07-.71-.26-.71-.27-.17-.27-.45-.07-.44-.71-.44-.71-.07-.71-.27-.27-.26-1.34-.26c-.77,0-1.33-.08-1.33-.18a.18.18,0,0,1,.18-.18c.09,0,.17-.2.17-.44s.1-.45.27-.45.27-.22.27-.9c0-1-.56-1.27-.68-.38a.72.72,0,0,1-.31.51c-.15.06-.26.34-.26.67a1.34,1.34,0,0,1-.44,1,1.33,1.33,0,0,0-.45.72,1.12,1.12,0,0,1-1,.88.75.75,0,0,0-.54.3.44.44,0,0,1-.52.18c-.36-.14-.2-.48.23-.48a1.25,1.25,0,0,0,.91-1,2.31,2.31,0,0,1,.72-.91,2.14,2.14,0,0,0,.71-1c0-.18.08-.33.17-.33s.18-.59.18-1.42-.07-1.43-.18-1.43-.17-.56-.17-1.33c0-1-.07-1.37-.27-1.45a.55.55,0,0,1-.27-.51.55.55,0,0,0-.26-.5c-.17-.07-.27-.34-.27-.73s-.08-.63-.18-.63S96,7.23,96,7.05c0-.8-2.15-2.56-3-2.43s-.76.11-.76-.43c0-.74,1-.81,1.57-.1a1.11,1.11,0,0,0,.65.44A2.65,2.65,0,0,1,96,6a1.1,1.1,0,0,0,.45.69,1.12,1.12,0,0,1,.44.7.51.51,0,0,0,.27.45.56.56,0,0,1,.27.52c0,.24.08.43.17.43s.18.15.18.33a.82.82,0,0,0,.26.55,1.93,1.93,0,0,1,.31,1c.09,1.4.68,1.28.68-.13,0-.84-.06-1.08-.27-1.08s-.27-.2-.27-.71-.08-.71-.17-.71-.18-.12-.18-.27.08-.26.18-.26.17-.17.17-.36a1.49,1.49,0,0,1,.2-.68c.18-.28.07-.46-.69-1.22s-1.28-1-1.28-.29a.25.25,0,0,1-.27.23c-.15,0-.27-.08-.27-.17s-.12-.18-.26-.18a.27.27,0,0,1-.27-.27c0-.15-.08-.27-.18-.27s-.18-.12-.18-.26-.08-.27-.19-.27a1,1,0,0,1-.7-.7c0-.1-.24-.19-.53-.19s-.53-.09-.53-.27-.08-.26-.18-.26S93,2.12,93,1.78s-.08-.63-.25-.63a.44.44,0,0,1-.35-.26c-.06-.17-.33-.27-.73-.27s-.67.1-.74.27c-.16.41-.39.31-.45-.21a.78.78,0,0,0-1-.64M99,11.94c-.26.25-.13,1.66.15,1.66s.26-.22.26-.89c0-.82-.12-1.06-.41-.77m-16.41,1.9c-.2.53,0,1.45.34,1.51s.31,0,.27-.79-.4-1.25-.61-.72M93.75,18c.36.32.43.86.15,1a.6.6,0,0,0,.22,1c.76.1.63.82-.16.89-.56,0-.69.13-.74.46-.08.59-.51.68-1,.21-.71-.67-.62-3.55.11-3.55a.54.54,0,0,0,.43-.18c.17-.27.65-.21,1,.12m3.71,1.74a1.18,1.18,0,0,0,.17.72.72.72,0,0,1,.18.54c0,.24-.08.44-.18.44s-.17-.17-.17-.37a1.64,1.64,0,0,0-.56-.87c-.64-.59-.59-1.08.11-1.08.39,0,.45.08.45.62m-6.58,1.18a.78.78,0,0,0,.27.52.82.82,0,0,1-.32,1.39c-.27,0-.49.13-.49.22,0,.25-1.13.2-1.41-.06s-.25-.18-.31,0a.57.57,0,0,1-.51.23c-.59,0-.58-.63,0-1.18a1.35,1.35,0,0,0,.44-.67.48.48,0,0,1,.18-.38.48.48,0,0,0,.18-.38,1.41,1.41,0,0,1,.39-.69l.39-.4.59.55a2,2,0,0,1,.59.85M82.23,20c.52.58.34,2.25-.25,2.25-.41,0-.44-.07-.49-1.05-.08-1.54.13-1.88.74-1.2m7.16,1.77c-.53.59-.38,1.1.33,1.1s.62,0,.62-.71-.41-1-1-.39m5.22,0a1.1,1.1,0,0,0,.29.62c.27.3.27.33,0,.44s-.41,1.76,0,1.91a.51.51,0,0,1,.26.44,1.5,1.5,0,0,0,.46.79c.28.28.38.5.26.57s-.23,0-.29-.16a.47.47,0,0,0-.39-.28c-.79,0-2.21-1.91-1.72-2.31a1.42,1.42,0,0,0,.26-.94,1.7,1.7,0,0,1,.3-1.05c.36-.4.59-.41.59,0m-2.31,2a.56.56,0,0,1-.17.44c-.2.12-.43-.54-.27-.8s.44,0,.44.36m.4,1.15c0,.1-.24.21-.48.24s-.45.16-.45.49-.1.43-.34.43a.81.81,0,0,0-.55.27,1.32,1.32,0,0,1-.83.26c-.48,0-.6.07-.6.36s-1,1.41-1.46,1.42-.38-.06-.15-.49a4.09,4.09,0,0,0,.26-.62.5.5,0,0,1,.46-.31c.22,0,.36-.12.36-.29,0-.63,1.17-1.49,2-1.49.55,0,.82-.08.89-.28s.94-.29.87,0M98,27.37c.3.22.45,1,.2,1s-.77-.6-.77-.91.15-.41.57-.08m-4.67.4c.39.34.32.59-.17.59-.26,0-.35.15-.39.66s-.14.68-.5.77a.58.58,0,0,0-.5.49c-.08.52-1.81.61-1.81.09a2,2,0,0,0-.56-.88c-.59-.61-.6-1.13,0-1.13A.86.86,0,0,0,90,28.1a1,1,0,0,1,.72-.27.85.85,0,0,0,.61-.18c.18-.29,1.65-.21,2,.12M68.78,67.7c1.67,1.66,1.64,2.39-.18,4.19A6.38,6.38,0,0,1,67,73.18a.47.47,0,0,0-.4.29c-.11.27-.14.27-.44,0a1.75,1.75,0,0,0-1-.29c-.76,0-1.34-.4-1.34-.92a.5.5,0,0,0-.26-.44c-.21-.08-.27-.41-.27-1.42s.06-1.35.27-1.43a.44.44,0,0,0,.26-.38,2.74,2.74,0,0,1,1.44-1.46.48.48,0,0,0,.41-.26c.29-.78,1.9-.34,3.09.83M103,66.87a1.23,1.23,0,0,0,.8.26c.36,0,.62.11.69.27a.45.45,0,0,0,.4.27,1.13,1.13,0,0,1,1,.89.81.81,0,0,0,.26.53c.2.16.27.59.27,1.63s-.06,1.43-.27,1.5a.59.59,0,0,0-.26.51.55.55,0,0,1-.27.51.53.53,0,0,0-.27.47c0,.19-.08.36-.18.36a.18.18,0,0,1-.17-.18c0-.1-.12-.18-.27-.18s-.27.08-.27.18-.2.18-.44.18-.45-.08-.45-.18-.4-.18-.89-.18-.93-.08-1-.26a.44.44,0,0,0-.39-.27,4.83,4.83,0,0,1-2-2c0-.17-.08-.31-.18-.31s-.18-.4-.18-.88a1.79,1.79,0,0,1,.18-1,.54.54,0,0,0,.18-.42,1.26,1.26,0,0,1,1-.91.72.72,0,0,0,.47-.27.78.78,0,0,1,.53-.27.47.47,0,0,0,.42-.26c.06-.16.33-.27.62-.27a1.07,1.07,0,0,1,.74.27M82,78.07c.15.18.56.27,1.25.27s1.06.07,1.13.26.34.27.73.27.63.08.63.18.19.17.42.17a.57.57,0,0,1,.53.27.47.47,0,0,0,.41.27c.55,0,1.48,1.07,1.48,1.7,0,.35.11.61.28.68.54.21.29,5-.28,5.09a.62.62,0,0,0-.5.48.49.49,0,0,1-.44.44c-.29,0-.4.2-.44.62a1.38,1.38,0,0,1-.31.78.73.73,0,0,0-.26.49,2.69,2.69,0,0,1-1.45,1.46.57.57,0,0,0-.42.17.56.56,0,0,1-.43.18.47.47,0,0,0-.43.27.47.47,0,0,1-.41.27,1.1,1.1,0,0,0-1,1.18c0,.33.08.59.18.59s.17.15.17.34a.81.81,0,0,0,.27.55.78.78,0,0,1,.27.54.81.81,0,0,0,.26.53.81.81,0,0,1,.27.56c0,.18.08.33.18.33s.18.35.18.78a1.48,1.48,0,0,0,.26,1,.78.78,0,0,1,.27.53.78.78,0,0,0,.27.53.86.86,0,0,1,.26.55c0,.2.16.34.4.38a.5.5,0,0,1,.46.45c0,.24.18.4.37.4a1.35,1.35,0,0,1,.73.45,1.39,1.39,0,0,0,.75.44.49.49,0,0,1,.43.27c.07.18.36.27,1,.27s.89.08,1,.26.33.27.72.27a1.08,1.08,0,0,1,.72.18,5.49,5.49,0,0,0,1.77.17c1.26,0,1.71.07,1.88.27s.55.27,1.25.27,1-.07,1.13-.27.38-.27,1.16-.27a2.56,2.56,0,0,0,1.17-.17.86.86,0,0,1,.61-.18,1.06,1.06,0,0,0,.73-.27.81.81,0,0,1,.53-.26.78.78,0,0,0,.53-.27.85.85,0,0,1,.56-.27c.18,0,.33-.08.33-.18s.15-.17.34-.17a.81.81,0,0,0,.55-.27.81.81,0,0,1,.55-.27.57.57,0,0,0,.43-.17c.18-.3.45-.21.45.15a.85.85,0,0,1-.27.56.81.81,0,0,0-.27.55.31.31,0,0,1-.32.34,3.9,3.9,0,0,0-1.28,1c-.7.71-1.1,1-1.45,1a.81.81,0,0,0-.59.18,2.43,2.43,0,0,1-1.18.18c-.78,0-1.09.07-1.16.26s-.33.27-.68.27a1.2,1.2,0,0,0-.81.27c-.18.21-.75.26-3,.26s-2.83,0-2.91-.26-.38-.27-1.15-.27-1.12-.08-1.28-.27a1.43,1.43,0,0,0-1-.26,1.46,1.46,0,0,1-.87-.18.6.6,0,0,0-.46-.18.52.52,0,0,1-.46-.26.46.46,0,0,0-.41-.27.78.78,0,0,0-.54.27A1.07,1.07,0,0,1,85,105a1.4,1.4,0,0,0-.91.44,1.35,1.35,0,0,1-.71.45.81.81,0,0,0-.51.27.84.84,0,0,1-.55.26c-.19,0-.34.08-.34.18s-.55.18-1.31.18c-1,0-1.37.07-1.53.27a1.1,1.1,0,0,1-.72.26.85.85,0,0,0-.61.18.89.89,0,0,1-.62.18,1,1,0,0,0-.72.27c-.2.24-.26.24-.53,0a1.47,1.47,0,0,0-.86-.27c-.31,0-.56-.08-.56-.18,0-.26-1.67-.22-2,0s-.25.17-.31,0-.4-.23-.85-.23a1.47,1.47,0,0,1-1-.26.74.74,0,0,0-.49-.27c-.3,0-.93-.5-.93-.74s.67-.19.8,0a2.4,2.4,0,0,0,1.17.18c.78,0,1.09.07,1.17.26s.44.27,1.66.27,1.62-.07,1.78-.27a1.72,1.72,0,0,1,1.17-.26,2.06,2.06,0,0,0,1.06-.18.51.51,0,0,1,.41-.18A10.32,10.32,0,0,0,81.1,103a2.54,2.54,0,0,1,.71-1c.78-.76,1-2.06.44-2.29-.16-.06-.27-.33-.27-.71s-.1-.65-.26-.71-.27-.35-.27-.88a1.82,1.82,0,0,0-.21-1c-.17-.16-.17-.26,0-.43s.28-1.32,0-1.47a.63.63,0,0,1-.17-.46.31.31,0,0,0-.34-.34.81.81,0,0,1-.55-.27.83.83,0,0,0-.54-.27.81.81,0,0,1-.53-.26.81.81,0,0,0-.56-.27c-.18,0-.33-.08-.33-.18s-.15-.17-.32-.17a1.36,1.36,0,0,1-.75-.45,1.37,1.37,0,0,0-.68-.44A3.13,3.13,0,0,1,75.05,90a.74.74,0,0,0-.27-.47.84.84,0,0,1-.26-.56.48.48,0,0,0-.27-.44.47.47,0,0,1-.27-.41A3.33,3.33,0,0,0,73.09,87a3.49,3.49,0,0,1-.88-1.17.85.85,0,0,0-.27-.51.81.81,0,0,1-.27-.55c0-.19-.08-.34-.18-.34-.42,0-.2-2.16.27-2.59a1.44,1.44,0,0,0,.44-.64,5.3,5.3,0,0,1,2-1.93c.17,0,.32-.08.32-.17s.15-.18.33-.18a.81.81,0,0,0,.55-.27,1.28,1.28,0,0,1,.81-.26c.35,0,.62-.11.68-.27s.53-.27,2.49-.27,2.43.06,2.6.27m-5,4.57c-.64.68-.62.85.13.85s.63,0,.63-.71-.1-.85-.76-.14m36.32,2a.85.85,0,0,0,.56.27c.18,0,.33.08.33.17s.14.18.3.18a1.22,1.22,0,0,1,.64.31c.32.29.35.29.51,0s.57-.4.87,0a.78.78,0,0,0,.52.27c.51,0,.93.61.87,1.27s-1.28,1-1.74.42a.83.83,0,0,0-.54-.27,1,1,0,0,1-.64-.45,1.1,1.1,0,0,0-.63-.44.76.76,0,0,1-.51-.27.82.82,0,0,0-.54-.26.78.78,0,0,1-.53-.27,1,1,0,0,0-.72-.27c-.55,0-.79-.23-.63-.63s1.59-.35,1.88,0m3.27,5.16c.06.16.34.26.72.26a1.11,1.11,0,0,1,.73.18.6.6,0,0,0,.46.18.49.49,0,0,1,.45.27c.36.92-1.67,1.14-2.53.27a1.84,1.84,0,0,0-.83-.54c-.39,0-.39-.15,0-.57s.87-.42,1,0m-15,21.36a1.29,1.29,0,0,1-.45,1.06c-.79.74-.63,1.59.54,2.74.79.78,1,1.08,1,1.55s.08.59.18.59.18.35.18.77a1.39,1.39,0,0,0,.27,1,1.28,1.28,0,0,1,.26.81c0,.35.11.62.27.68.35.14.34.45,0,.87s-.29.35,0,.51.31.39.31.79.08.61.17.61.18.71.18,1.76c0,1.34.07,1.81.27,2s.27.57.27,1.45-.07,1.25-.27,1.33a.49.49,0,0,0-.27.45c0,.9-2.58,1.51-3.2.77a.76.76,0,0,0-.51-.27,4.55,4.55,0,0,1-1.8-1.84.72.72,0,0,0-.27-.47.84.84,0,0,1-.26-.55.62.62,0,0,0-.28-.48c-.25-.14-.25-.17,0-.38a1.93,1.93,0,0,0,0-2,1.32,1.32,0,0,1-.27-.89,1.34,1.34,0,0,1,.27-.89c.39-.32.34-.89-.08-.89s-.71-.39-.4-.49a.41.41,0,0,0,.21-.39.84.84,0,0,1,.28-.55c.24-.2.22-.28-.18-.69s-.67-2.34-.28-2.59a.86.86,0,0,0,.18-.61,1,1,0,0,1,.27-.72,2.12,2.12,0,0,0,.07-1.9c-.13-.14-.13-.3,0-.55.29-.45.1-.93-.36-.93-.2,0-.36-.08-.36-.18s-.2-.18-.44-.18a.72.72,0,0,0-.54.18,6.87,6.87,0,0,1-2.13.18c-1.62,0-2,0-2.12.26a.5.5,0,0,1-.46.27c-.2,0-.36-.12-.36-.27s.17-.26.44-.26.45-.08.45-.18.47-.18,1-.18,1.12-.08,1.27-.27a.82.82,0,0,1,.54-.26.48.48,0,0,0,.42-.27.47.47,0,0,1,.43-.27,1.39,1.39,0,0,0,.75-.44c.4-.43.5-.45,2.61-.45h2.19v.65M73.63,113.1a1,1,0,0,0,.67.27,1.08,1.08,0,0,1,1.1,1.07,1,1,0,0,0,.27.71.78.78,0,0,1,.27.53.83.83,0,0,1-.27.54c-.17.14-.27.54-.27,1.16a2.19,2.19,0,0,1-.17,1.06,4,4,0,0,0-.18,1.56c0,2.24-1.48,3.44-2.67,2.17a1.37,1.37,0,0,0-.74-.44c-.18,0-.33-.08-.33-.18,0-.36-.51-.16-.56.22s-.16.4-.86.4h-.8l0-1.31c0-.94,0-1.36.17-1.46s.19-.19,0-.37a2.9,2.9,0,0,1-.22-1.41c0-.85-.07-1.25-.27-1.41s-.19-.32.44-1a2.65,2.65,0,0,0,.72-1c0-.44.49-.57.87-.23s.91.37.91,0c0-.84,1.45-1.47,2-.86m10,2a1,1,0,0,1,.36.61.54.54,0,0,0,.18.42c.25.15.22,1.22,0,1.48s-.17.25,0,.38.22.21,0,.39a.84.84,0,0,0-.22.52.78.78,0,0,1-.27.52.81.81,0,0,0-.26.53.47.47,0,0,1-.27.42c-.21.08-.27.43-.27,1.61a4.62,4.62,0,0,1-.17,1.62,1.06,1.06,0,0,0-.18.71c0,.69-.26,1-.51.5-.14-.26-.21-.27-.46-.07s-.34.2-.5,0-.39,0-1,.53c-1.09,1.07-1.31.9-1.31-1,0-1.19,0-1.55-.26-1.63s-.35-.67,0-1,.24-.25,0-.43-.17-.3.45-.9a2.56,2.56,0,0,0,.71-1,2.49,2.49,0,0,1,.71-1c.49-.48.72-.85.72-1.18a.89.89,0,0,1,.17-.6.6.6,0,0,0,.18-.46.49.49,0,0,1,.27-.45.61.61,0,0,0,.26-.53c0-.53,1-.61,1.6-.12m-13.16,4.6c0,1.11,0,1.16.41,1.11.66-.1.71-2.28,0-2.28-.44,0-.46,0-.46,1.17m6.41.7c0,.24-.08.44-.17.44s-.19.38-.22.84c0,.73-.12.86-.46.91a.42.42,0,0,1-.34-.77.82.82,0,0,0,.3-.6c0-.22.11-.38.26-.38s.27-.17.27-.44.08-.45.18-.45.18.2.18.45m-.36,3.18a1.37,1.37,0,0,1-.44.63c-.62.59-.86,0-.27-.62.41-.43.71-.44.71,0M147.85,193a.51.51,0,0,0,.45.27.58.58,0,0,1,.46.18.6.6,0,0,0,.46.18.52.52,0,0,1,.46.26.57.57,0,0,0,.53.27c.23,0,.42.08.42.18s.15.18.34.18a.84.84,0,0,1,.55.26.78.78,0,0,0,.53.27,1.06,1.06,0,0,1,.64.44,1.07,1.07,0,0,0,.6.45c.33,0,1.08.7,1.08,1a2.52,2.52,0,0,0,.71.92,2.38,2.38,0,0,1,.71,1,.77.77,0,0,0,.29.54.44.44,0,0,1,.19.5c-.16.41-.48.37-.48,0a3.56,3.56,0,0,0-1-1.29,4.25,4.25,0,0,1-1-1.2,1.14,1.14,0,0,0-.89-.91.81.81,0,0,1-.53-.26.76.76,0,0,0-.51-.27,1.05,1.05,0,0,1-.63-.45,1.08,1.08,0,0,0-.65-.44.54.54,0,0,1-.43-.18,3,3,0,0,0-1.33-.18c-.86,0-1.27-.07-1.43-.26s-.63-.27-2-.27-1.78.06-1.95.27a1.1,1.1,0,0,1-.72.26.87.87,0,0,0-.62.18.85.85,0,0,1-.61.18c-.35,0-.7.21-1.19.71a2.61,2.61,0,0,1-.94.71,2.79,2.79,0,0,0-1.44,1.43,3.49,3.49,0,0,1-.88,1.13,3.55,3.55,0,0,0-.9,1.15,2.23,2.23,0,0,1-.71.92,2.19,2.19,0,0,0-.7.9,1.52,1.52,0,0,1-.45.7,1.33,1.33,0,0,0-.45.7,1.4,1.4,0,0,1-.52.73,1.54,1.54,0,0,0-.54.71,1.33,1.33,0,0,1-.45.7,1.41,1.41,0,0,0-.44.72.78.78,0,0,1-.27.53.81.81,0,0,0-.27.55c0,.19-.08.34-.17.34s-.18.15-.18.33a.85.85,0,0,1-.27.56.82.82,0,0,0-.26.54.54.54,0,0,1-.18.43.57.57,0,0,0-.18.44.49.49,0,0,1-.27.43.49.49,0,0,0-.26.44.81.81,0,0,1-.27.56c-.18.15-.27.56-.27,1.27s-.08,1-.18,1a16.6,16.6,0,0,0-.17,3.73,20.12,20.12,0,0,0,.17,3.83,1.55,1.55,0,0,1,.18.9c0,.44-.08.79-.18.79s-.17-.16-.17-.36a.5.5,0,0,0-.27-.46c-.21-.08-.27-.43-.27-1.58s-.07-1.53-.26-1.69-.27-.78-.27-3.32,0-3.11.27-3.2.26-.33.26-.68a1.17,1.17,0,0,1,.27-.8.81.81,0,0,0,.27-.56c0-.18.08-.33.17-.33s.18-.15.18-.34a.81.81,0,0,1,.27-.55,1.21,1.21,0,0,0,.27-.82c0-.33.08-.6.17-.6s.18-.15.18-.34a.81.81,0,0,1,.27-.55,1,1,0,0,0,.27-.69,1.71,1.71,0,0,1,.44-1,1.74,1.74,0,0,0,.44-.72,1.77,1.77,0,0,1,.54-.76,1.75,1.75,0,0,0,.53-.76,1.28,1.28,0,0,1,.45-.67,1.38,1.38,0,0,0,.44-.66,2.69,2.69,0,0,1,.71-.93,2.69,2.69,0,0,0,.71-.93,4,4,0,0,1,.89-1.16,3.63,3.63,0,0,0,.89-1.24.3.3,0,0,1,.33-.31,3.09,3.09,0,0,0,1.63-1.63.31.31,0,0,1,.35-.33,2.12,2.12,0,0,0,1-.71,2.23,2.23,0,0,1,1-.71.54.54,0,0,0,.43-.18,2.46,2.46,0,0,1,1.18-.18c.78,0,1.09-.07,1.16-.27s.49-.26,2.11-.26,2,.05,2.11.26m-.1,2.54c0,.24.18.4.37.4.44,0,.73.35.73.89,0,.7.92,1.52,1.38,1.23s.93-.1.93.35a.58.58,0,0,0,.18.46,1.5,1.5,0,0,1,.18.88,1.15,1.15,0,0,0,.53,1.17,1.27,1.27,0,0,1,.54.73.54.54,0,0,0,.18.42,1.56,1.56,0,0,1,.17.87c0,.64.11.85.71,1.45s.72.83.72,1.28v.58h1.15c1,0,1.16,0,1.16-.31s.57-1.11.78-1.11a15.37,15.37,0,0,1,.11,2.58,8,8,0,0,1-.18,2.58c-.1,0-.18.27-.18.6a1.21,1.21,0,0,1-.27.82,1.1,1.1,0,0,0-.26.72.85.85,0,0,1-.18.61,1.06,1.06,0,0,0-.18.71c0,.36-.1.63-.26.69s-.27.34-.27.74-.1.67-.27.73a.5.5,0,0,0-.26.43.57.57,0,0,1-.18.44,1.47,1.47,0,0,0-.18.88,1.46,1.46,0,0,1-.27,1,.81.81,0,0,0-.26.53.78.78,0,0,1-.27.53.85.85,0,0,0-.27.56c0,.18-.08.33-.18.33s-.17.29-.17.63-.1.67-.27.73a.51.51,0,0,0-.27.46,1.15,1.15,0,0,1-.44.7,1.13,1.13,0,0,0-.45.66,2.44,2.44,0,0,1-.71,1,2.79,2.79,0,0,0-.71.91c0,.39-1.22,1.54-1.51,1.43s-.37-.47-.09-.47c.1,0,.18-.26.18-.59s.16-.75.71-1.28a1.9,1.9,0,0,0,.71-1.16,1.37,1.37,0,0,1,.45-.88,1.39,1.39,0,0,0,.44-.69,1.09,1.09,0,0,1,.29-.58c.36-.4.2-.87-.28-.87-.24,0-.37.12-.37.34a.84.84,0,0,1-.26.55.74.74,0,0,0-.27.48,1.33,1.33,0,0,1-.44.66,1.37,1.37,0,0,0-.45.68.77.77,0,0,1-.26.49.74.74,0,0,0-.27.44c0,.68-1.82,2.94-2.36,2.94a1.39,1.39,0,0,0-.69.44c-.35.37-.59.45-1.42.45-.67,0-1.07.09-1.22.27a1.48,1.48,0,0,1-1,.27c-.43,0-.78.08-.78.17s-.27.18-.6.18a1.21,1.21,0,0,0-.82.27c-.16.18-.57.26-1.34.26s-1.18-.08-1.33-.26a.76.76,0,0,0-.5-.27,1.14,1.14,0,0,1-.92-.88c0-.34-.54-.84-1-.93s-.48-2.35.07-2.42.51-.39,0-.39c-.31,0-.45-.11-.49-.4s-.19-.42-.94-.49c-1.11-.11-1.4-1-.56-1.62a1.42,1.42,0,0,0,.5-.74.55.55,0,0,1,.41-.46,1.32,1.32,0,0,0,1-1.41,1.42,1.42,0,0,1,.53-1.2,1.66,1.66,0,0,0,.54-.82.57.57,0,0,1,.17-.42,2.29,2.29,0,0,0,0-1.83c-.17-.17-.17-.26,0-.43.64-.64,0-1.92-1-1.92s-.79-.62.12-1.42a2.22,2.22,0,0,0,.71-.91,1.5,1.5,0,0,1,.45-.69,1.34,1.34,0,0,0,.45-.74.57.57,0,0,1,.17-.42c.38-.23.21-1.3-.22-1.37s-.66-1-.23-1.38a.8.8,0,0,0,.28-.52,2.49,2.49,0,0,1,.71-1,2.41,2.41,0,0,0,.71-1c0-.18.08-.33.18-.33s.17-.14.17-.32a3.84,3.84,0,0,1,1-1.28,3.74,3.74,0,0,0,1-1.29c0-.17.08-.31.18-.31s.18-.15.18-.32a1.7,1.7,0,0,1,.53-.84,1.8,1.8,0,0,0,.53-.75,1.45,1.45,0,0,1,.17-.54,4.09,4.09,0,0,0,.26-.62c.07-.24.29-.31,1-.31.49,0,.89-.08.89-.18s.4-.18.87-.18c.63,0,.91-.08,1-.28.18-.45,1.25-.26,1.32.24m7.15,17a.27.27,0,0,1-.27.27c-.16,0-.26.17-.26.43a.59.59,0,0,1-.27.53c-.17.06-.27.33-.27.73s-.08.63-.18.63-.17.32-.17.71.08.71.17.71.18-.31.18-.69.1-.73.27-.8a.5.5,0,0,0,.27-.44.52.52,0,0,1,.26-.45c.17-.06.27-.33.27-.69a1.46,1.46,0,0,1,.19-.79c.14-.14.14-.23,0-.31s-.19,0-.19.16m-2.31,5.88c0,.24.08.44.18.44s.17-.2.17-.44-.08-.45-.17-.45-.18.2-.18.45m-.54.88c0,.25.08.45.18.45s.18-.2.18-.45-.08-.44-.18-.44-.18.2-.18.44" style="fill:#ffde98;fill-rule:evenodd"/><path d="M90.52.71c0,.24.06.44.14.44s.57-.65.44-.78-.58-.07-.58.34M87.23,3.07a1.76,1.76,0,0,0-.59.42c0,.08-.2.15-.38.15a.78.78,0,0,0-.54.27.74.74,0,0,1-.47.27,7.69,7.69,0,0,0-2.38,2.37.51.51,0,0,1-.17.38,1.5,1.5,0,0,0-.18.88,1.43,1.43,0,0,1-.27,1,.78.78,0,0,0-.27.54.46.46,0,0,1-.26.41c-.17.07-.27.34-.27.73s-.08.63-.18.63-.17.56-.17,1.33a3.71,3.71,0,0,0,.17,1.43.85.85,0,0,1,.18.61,1.11,1.11,0,0,0,.28.74c.21.17.26.41.18.91s-.06.67.21.67a1.06,1.06,0,0,1,.64.44c.19.25.41.4.49.35.25-.15.18-.64-.14-1a.57.57,0,0,1-.1-.75c.17-.37.15-.44-.17-.52s-.36-.2-.28-1,0-.9-.25-1c-.43-.12-.48-1.91-.06-2.26a1.43,1.43,0,0,0,.27-1,1.52,1.52,0,0,1,.18-.88.9.9,0,0,0,.17-.61,1,1,0,0,1,.27-.72.74.74,0,0,0,.27-.48,11.38,11.38,0,0,1,2.89-2.9.51.51,0,0,0,.4-.18.63.63,0,0,1,.46-.17.49.49,0,0,0,.45-.27c.06-.17.33-.27.71-.27.68,0,.75-.16.28-.59s-.66-.35-1.37,0M92.3,4.19c0,.54,0,.54.76.43s3,1.63,3,2.43c0,.18.08.33.18.33s.18.28.18.63.1.66.27.73a.55.55,0,0,1,.26.5.55.55,0,0,0,.27.51c.2.08.27.42.27,1.45,0,.77.07,1.33.17,1.33s.18.6.18,1.43-.07,1.42-.18,1.42-.17.15-.17.33a2.14,2.14,0,0,1-.71,1,2.31,2.31,0,0,0-.72.91,1.25,1.25,0,0,1-.91,1c-.43,0-.59.34-.23.48a.44.44,0,0,0,.52-.18.79.79,0,0,1,.57-.3,1.11,1.11,0,0,0,.94-.92,1.37,1.37,0,0,1,.45-.68,1.34,1.34,0,0,0,.44-1c0-.34.11-.61.27-.67a.54.54,0,0,0,.27-.48.47.47,0,0,1,.32-.47c.47-.12.46-2.66,0-2.79-.24-.06-.31-.27-.31-.87a1.5,1.5,0,0,0-.27-1,.81.81,0,0,1-.27-.56c0-.18-.08-.33-.18-.33s-.17-.19-.17-.43a.56.56,0,0,0-.27-.52.51.51,0,0,1-.27-.45,1.12,1.12,0,0,0-.44-.7A1.1,1.1,0,0,1,96,6a2.65,2.65,0,0,0-1.51-1.48,1.11,1.11,0,0,1-.65-.44c-.55-.71-1.57-.64-1.57.1m-.59.64c-.21.2-.13.41.14.41A.27.27,0,0,0,92.12,5c0-.28-.21-.36-.41-.15m1,13a.54.54,0,0,1-.43.18c-.73,0-.82,2.88-.11,3.55.51.47.94.38,1-.21,0-.33.18-.42.74-.46.79-.07.92-.79.16-.89a.6.6,0,0,1-.22-1c.28-.18.21-.72-.15-1s-.84-.39-1-.12m3.71,1.53c-.07.17.09.46.45.79a1.64,1.64,0,0,1,.56.87c0,.2.08.37.17.37s.18-.2.18-.44a.72.72,0,0,0-.18-.54,1.18,1.18,0,0,1-.17-.72c0-.67-.78-.93-1-.33m-7.14.51a1.41,1.41,0,0,0-.39.69.48.48,0,0,1-.18.38.48.48,0,0,0-.18.38,1.35,1.35,0,0,1-.44.67c-.59.55-.6,1.18,0,1.18a.57.57,0,0,0,.51-.23c.06-.18.13-.18.31,0s1.41.31,1.41.06c0-.09.22-.19.49-.22a.82.82,0,0,0,.32-1.39.78.78,0,0,1-.27-.52,2,2,0,0,0-.59-.85l-.59-.55-.39.4m-7.79,0c-.29.77,0,2.34.46,2.34s.45-.07.5-1c.07-1.16-.64-2.19-1-1.38m8.82,2.25c0,.69,0,.71-.62.71s-.86-.51-.33-1.1,1-.42,1,.39M94,21.75a1.7,1.7,0,0,0-.3,1.05,1.42,1.42,0,0,1-.26.94c-.49.4.93,2.31,1.72,2.31a.47.47,0,0,1,.39.28c.06.15.19.22.29.16s0-.29-.26-.57a1.5,1.5,0,0,1-.46-.79.51.51,0,0,0-.26-.44c-.39-.15-.37-1.76,0-1.91s.27-.14,0-.44a1.1,1.1,0,0,1-.29-.62c0-.38-.23-.37-.59,0m-2.16,1.63c-.16.26.07.92.27.8a.67.67,0,0,0,0-.88.2.2,0,0,0-.27.08m0,1.5c-.07.2-.34.28-.89.28-.85,0-2,.86-2,1.49,0,.17-.14.29-.36.29a.5.5,0,0,0-.46.31,4.09,4.09,0,0,1-.26.62c-.23.43-.21.49.15.49s1.46-1,1.46-1.42.12-.36.6-.36a1.32,1.32,0,0,0,.83-.26.81.81,0,0,1,.55-.27c.24,0,.34-.13.34-.43s.1-.45.45-.49c.57-.07.65-.4.12-.47a.45.45,0,0,0-.51.22m5.63,2.57c0,.31.51.91.77.91s.1-.77-.2-1-.57-.31-.57.08m-6.14.2a.85.85,0,0,1-.61.18,1,1,0,0,0-.72.27.86.86,0,0,1-.56.26c-.6,0-.59.52,0,1.13a2,2,0,0,1,.56.88c0,.52,1.73.43,1.81-.09a.58.58,0,0,1,.5-.49c.36-.09.45-.23.5-.77s.13-.66.39-.66c.49,0,.56-.25.17-.59s-1.86-.41-2-.12M65.69,66.87a.48.48,0,0,1-.41.26,2.74,2.74,0,0,0-1.44,1.46.44.44,0,0,1-.26.38c-.21.08-.27.42-.27,1.43s.06,1.34.27,1.42a.5.5,0,0,1,.26.44c0,.52.58.92,1.34.92a1.75,1.75,0,0,1,1,.29c.3.27.33.27.44,0a.47.47,0,0,1,.4-.29c.78,0,2.87-2.53,2.87-3.47,0-1.83-3.65-4.3-4.2-2.84m35.92,0a.47.47,0,0,1-.42.26.78.78,0,0,0-.53.27.72.72,0,0,1-.47.27,1.26,1.26,0,0,0-1,.91.54.54,0,0,1-.18.42,1.79,1.79,0,0,0-.18,1c0,.48.08.88.18.88s.18.14.18.31a4.83,4.83,0,0,0,2,2,.44.44,0,0,1,.39.27c.07.18.37.26,1,.26s.89.08.89.18.2.18.45.18.44-.08.44-.18.12-.18.27-.18.27.08.27.18a.18.18,0,0,0,.17.18c.1,0,.18-.17.18-.36a.53.53,0,0,1,.27-.47.55.55,0,0,0,.27-.51.59.59,0,0,1,.26-.51c.21-.07.27-.42.27-1.5s-.07-1.47-.27-1.63a.81.81,0,0,1-.26-.53,1.13,1.13,0,0,0-1-.89.45.45,0,0,1-.4-.27c-.07-.16-.33-.27-.69-.27a1.23,1.23,0,0,1-.8-.26,1.07,1.07,0,0,0-.74-.27c-.29,0-.56.11-.62.27M76.89,78.07c-.06.16-.33.27-.68.27a1.28,1.28,0,0,0-.81.26.81.81,0,0,1-.55.27c-.18,0-.33.08-.33.18s-.15.17-.32.17a5.3,5.3,0,0,0-2,1.93,1.44,1.44,0,0,1-.44.64c-.47.43-.69,2.59-.27,2.59.1,0,.18.15.18.34a.81.81,0,0,0,.27.55.85.85,0,0,1,.27.51A3.49,3.49,0,0,0,73.09,87,3.33,3.33,0,0,1,74,88.13a.47.47,0,0,0,.27.41.48.48,0,0,1,.27.44.84.84,0,0,0,.26.56.74.74,0,0,1,.27.47A3.13,3.13,0,0,0,76.5,91.5a1.37,1.37,0,0,1,.68.44,1.36,1.36,0,0,0,.75.45c.17,0,.32.08.32.17s.15.18.33.18a.81.81,0,0,1,.56.27.81.81,0,0,0,.53.26.83.83,0,0,1,.54.27.81.81,0,0,0,.55.27.31.31,0,0,1,.34.34.63.63,0,0,0,.17.46c.25.15.23,1.22,0,1.47s-.17.27,0,.43a1.82,1.82,0,0,1,.21,1c0,.53.09.81.27.88s.26.33.26.71.11.65.27.71c.59.23.34,1.53-.44,2.29a2.54,2.54,0,0,0-.71,1,10.32,10.32,0,0,1-2.88,2.86.51.51,0,0,0-.41.18,2.06,2.06,0,0,1-1.06.18,1.72,1.72,0,0,0-1.17.26c-.16.2-.61.27-1.78.27s-1.58-.06-1.66-.27-.39-.26-1.17-.26a2.4,2.4,0,0,1-1.17-.18c-.13-.22-.8-.24-.8,0s.63.74.93.74a.74.74,0,0,1,.49.27,1.47,1.47,0,0,0,1,.26c.45,0,.8.1.85.23s.12.17.31,0,2-.31,2,0c0,.1.25.18.56.18a1.47,1.47,0,0,1,.86.27c.27.24.33.24.53,0a1,1,0,0,1,.72-.27.89.89,0,0,0,.62-.18.85.85,0,0,1,.61-.18,1.1,1.1,0,0,0,.72-.26c.16-.2.58-.27,1.53-.27.76,0,1.31-.07,1.31-.18s.15-.18.34-.18a.84.84,0,0,0,.55-.26.81.81,0,0,1,.51-.27,1.35,1.35,0,0,0,.71-.45A1.4,1.4,0,0,1,85,105a1.07,1.07,0,0,0,.72-.26.78.78,0,0,1,.54-.27.46.46,0,0,1,.41.27.52.52,0,0,0,.46.26.6.6,0,0,1,.46.18,1.46,1.46,0,0,0,.87.18,1.43,1.43,0,0,1,1,.26c.16.19.56.27,1.28.27s1.07.07,1.15.27.58.26,2.91.26,2.84-.05,3-.26a1.2,1.2,0,0,1,.81-.27c.35,0,.62-.1.68-.27s.38-.26,1.16-.26a2.43,2.43,0,0,0,1.18-.18.81.81,0,0,1,.59-.18c.35,0,.75-.27,1.45-1a3.9,3.9,0,0,1,1.28-1,.31.31,0,0,0,.32-.34.81.81,0,0,1,.27-.55.85.85,0,0,0,.27-.56c0-.36-.27-.45-.45-.15a.57.57,0,0,1-.43.17.81.81,0,0,0-.55.27.81.81,0,0,1-.55.27c-.19,0-.34.08-.34.17s-.15.18-.33.18a.85.85,0,0,0-.56.27.78.78,0,0,1-.53.27.81.81,0,0,0-.53.26,1.06,1.06,0,0,1-.73.27.86.86,0,0,0-.61.18,2.56,2.56,0,0,1-1.17.17c-.78,0-1.09.08-1.16.27s-.38.27-1.13.27-1.1-.09-1.25-.27-.62-.27-1.88-.27a5.49,5.49,0,0,1-1.77-.17,1.08,1.08,0,0,0-.72-.18c-.39,0-.66-.1-.72-.27s-.36-.26-1-.26-.88-.09-1-.27a.49.49,0,0,0-.43-.27,1.39,1.39,0,0,1-.75-.44,1.35,1.35,0,0,0-.73-.45c-.19,0-.33-.16-.37-.4a.5.5,0,0,0-.46-.45c-.24,0-.4-.18-.4-.38a.86.86,0,0,0-.26-.55.78.78,0,0,1-.27-.53.78.78,0,0,0-.27-.53,1.48,1.48,0,0,1-.26-1c0-.43-.08-.78-.18-.78s-.18-.15-.18-.33a.81.81,0,0,0-.27-.56.81.81,0,0,1-.26-.53.78.78,0,0,0-.27-.54.81.81,0,0,1-.27-.55c0-.19-.08-.34-.17-.34s-.18-.26-.18-.59a1.1,1.1,0,0,1,1-1.18.47.47,0,0,0,.41-.27.47.47,0,0,1,.43-.27.56.56,0,0,0,.43-.18.57.57,0,0,1,.42-.17A2.69,2.69,0,0,0,86.61,90a.73.73,0,0,1,.26-.49,1.38,1.38,0,0,0,.31-.78c0-.42.15-.58.44-.62a.49.49,0,0,0,.44-.44.62.62,0,0,1,.5-.48c.57-.13.82-4.88.28-5.09-.17-.07-.28-.33-.28-.68,0-.63-.93-1.7-1.48-1.7a.47.47,0,0,1-.41-.27.57.57,0,0,0-.53-.27c-.23,0-.42-.08-.42-.17s-.28-.18-.63-.18-.66-.1-.73-.27-.38-.26-1.13-.26-1.1-.09-1.25-.27-.7-.27-2.6-.27-2.4,0-2.49.27m.83,4.71c0,.7,0,.71-.63.71s-.77-.17-.13-.85.76-.69.76.14m33.68,1.86c-.16.4.08.63.63.63a1,1,0,0,1,.72.27.78.78,0,0,0,.53.27.82.82,0,0,1,.54.26.76.76,0,0,0,.51.27,1.1,1.1,0,0,1,.63.44,1,1,0,0,0,.64.45.83.83,0,0,1,.54.27c.46.57,1.67.27,1.74-.42s-.36-1.27-.87-1.27a.78.78,0,0,1-.52-.27c-.3-.36-.66-.34-.87,0s-.19.29-.51,0a1.22,1.22,0,0,0-.64-.31c-.16,0-.3-.08-.3-.18s-.15-.17-.33-.17a.85.85,0,0,1-.56-.27c-.29-.36-1.75-.36-1.88,0m4.14,5.22c-.38.42-.38.57,0,.57a1.84,1.84,0,0,1,.83.54c.86.87,2.89.65,2.53-.27a.49.49,0,0,0-.45-.27.6.6,0,0,1-.46-.18,1.11,1.11,0,0,0-.73-.18c-.38,0-.66-.1-.72-.26-.14-.37-.66-.34-1,0M96.75,111a1.39,1.39,0,0,1-.75.44.47.47,0,0,0-.43.27.48.48,0,0,1-.42.27.82.82,0,0,0-.54.26c-.15.19-.55.27-1.27.27s-1,.08-1,.18-.2.18-.45.18-.44.1-.44.26.16.27.36.27a.5.5,0,0,0,.46-.27c.09-.21.5-.26,2.12-.26a6.87,6.87,0,0,0,2.13-.18.72.72,0,0,1,.54-.18c.24,0,.44.08.44.18s.16.18.36.18c.46,0,.65.48.36.93-.16.25-.16.41,0,.55a2.12,2.12,0,0,1-.07,1.9,1,1,0,0,0-.27.72.86.86,0,0,1-.18.61c-.39.25-.2,2.09.28,2.59s.42.49.18.69a.84.84,0,0,0-.28.55.41.41,0,0,1-.21.39c-.31.1,0,.49.4.49s.47.57.08.89a1.34,1.34,0,0,0-.27.89,1.32,1.32,0,0,0,.27.89,1.93,1.93,0,0,1,0,2c-.25.21-.25.24,0,.38a.62.62,0,0,1,.28.48.84.84,0,0,0,.26.55.72.72,0,0,1,.27.47,4.55,4.55,0,0,0,1.8,1.84.76.76,0,0,1,.51.27c.62.74,3.2.13,3.2-.77a.49.49,0,0,1,.27-.45c.2-.08.27-.41.27-1.33s-.08-1.3-.27-1.45-.27-.64-.27-2c0-1-.07-1.76-.18-1.76s-.17-.27-.17-.61-.11-.68-.31-.79-.29-.19,0-.51.39-.73,0-.87c-.16-.06-.27-.33-.27-.68a1.28,1.28,0,0,0-.26-.81,1.39,1.39,0,0,1-.27-1c0-.42-.08-.77-.18-.77s-.18-.27-.18-.59-.18-.77-1-1.55c-1.17-1.15-1.33-2-.54-2.74a1.29,1.29,0,0,0,.45-1.06v-.65H99.36c-2.11,0-2.21,0-2.61.45m-24.69,2.28a1.3,1.3,0,0,0-.39.71c0,.38-.5.39-.91,0s-.87-.21-.87.23a2.65,2.65,0,0,1-.72,1c-.63.64-.68.76-.44,1s.27.56.27,1.41a2.9,2.9,0,0,0,.22,1.41c.18.18.18.25,0,.37s-.21.52-.17,1.46l0,1.31h.8c.7,0,.81,0,.86-.4s.56-.58.56-.22c0,.1.15.18.33.18a1.37,1.37,0,0,1,.74.44c1.19,1.27,2.67.07,2.67-2.17a4,4,0,0,1,.18-1.56,2.19,2.19,0,0,0,.17-1.06c0-.62.1-1,.27-1.16a.83.83,0,0,0,.27-.54.78.78,0,0,0-.27-.53,1,1,0,0,1-.27-.71,1.08,1.08,0,0,0-1.1-1.07,1,1,0,0,1-.67-.27,1.12,1.12,0,0,0-1.57.15m9.92,2a.61.61,0,0,1-.26.53.49.49,0,0,0-.27.45.6.6,0,0,1-.18.46.89.89,0,0,0-.17.6c0,.33-.23.7-.72,1.18a2.49,2.49,0,0,0-.71,1,2.56,2.56,0,0,1-.71,1c-.62.6-.68.73-.45.9s.25.23,0,.43-.35.82,0,1,.26.44.26,1.63c0,1.9.22,2.07,1.31,1,.57-.56.8-.69,1-.53s.28.15.5,0,.32-.19.46.07c.25.45.51.19.51-.5a1.06,1.06,0,0,1,.18-.71,4.62,4.62,0,0,0,.17-1.62c0-1.18.06-1.53.27-1.61a.47.47,0,0,0,.27-.42.81.81,0,0,1,.26-.53.78.78,0,0,0,.27-.52.84.84,0,0,1,.22-.52c.18-.18.17-.26,0-.39s-.22-.2,0-.38.29-1.33,0-1.48a.54.54,0,0,1-.18-.42c0-.47-.65-.92-1.34-.92-.53,0-.62.06-.62.43m-10.7,4.42c-.09,1.75-.86,1.8-.86.06,0-1.14,0-1.17.46-1.17s.45,0,.4,1.11m5.19.76c0,.27-.1.44-.27.44s-.26.16-.26.38a.82.82,0,0,1-.3.6.42.42,0,0,0,.34.77c.34,0,.41-.18.46-.91,0-.46.13-.84.22-.84s.17-.2.17-.44-.08-.45-.18-.45-.18.2-.18.45m-.71,3.19c-.59.64-.35,1.21.27.62a1.37,1.37,0,0,0,.44-.63c0-.43-.3-.42-.71,0M143.63,193c-.07.2-.38.27-1.16.27a2.46,2.46,0,0,0-1.18.18.54.54,0,0,1-.43.18,2.23,2.23,0,0,0-1,.71,2.12,2.12,0,0,1-1,.71.31.31,0,0,0-.35.33,3.09,3.09,0,0,1-1.63,1.63.3.3,0,0,0-.33.31,3.63,3.63,0,0,1-.89,1.24,4,4,0,0,0-.89,1.16,2.69,2.69,0,0,1-.71.93,2.69,2.69,0,0,0-.71.93,1.38,1.38,0,0,1-.44.66,1.28,1.28,0,0,0-.45.67,1.75,1.75,0,0,1-.53.76,1.77,1.77,0,0,0-.54.76,1.74,1.74,0,0,1-.44.72,1.71,1.71,0,0,0-.44,1,1,1,0,0,1-.27.69.81.81,0,0,0-.27.55c0,.19-.08.34-.18.34s-.17.27-.17.6a1.21,1.21,0,0,1-.27.82.81.81,0,0,0-.27.55c0,.19-.08.34-.18.34s-.17.15-.17.33a.81.81,0,0,1-.27.56,1.17,1.17,0,0,0-.27.8c0,.35-.1.62-.26.68s-.27.61-.27,3.2,0,3.14.27,3.32.26.6.26,1.69.06,1.5.27,1.58a.5.5,0,0,1,.27.46c0,.2.08.36.17.36s.18-.35.18-.79a1.55,1.55,0,0,0-.18-.9,20.12,20.12,0,0,1-.17-3.83,16.6,16.6,0,0,1,.17-3.73c.1,0,.18-.46.18-1s.09-1.12.27-1.27a.81.81,0,0,0,.27-.56.49.49,0,0,1,.26-.44.49.49,0,0,0,.27-.43.57.57,0,0,1,.18-.44.54.54,0,0,0,.18-.43.82.82,0,0,1,.26-.54.85.85,0,0,0,.27-.56c0-.18.08-.33.18-.33s.17-.15.17-.34a.81.81,0,0,1,.27-.55.78.78,0,0,0,.27-.53,1.41,1.41,0,0,1,.44-.72,1.33,1.33,0,0,0,.45-.7,1.54,1.54,0,0,1,.54-.71,1.4,1.4,0,0,0,.52-.73,1.33,1.33,0,0,1,.45-.7,1.52,1.52,0,0,0,.45-.7,2.19,2.19,0,0,1,.7-.9,2.23,2.23,0,0,0,.71-.92,3.55,3.55,0,0,1,.9-1.15,3.49,3.49,0,0,0,.88-1.13,2.79,2.79,0,0,1,1.44-1.43,2.61,2.61,0,0,0,.94-.71c.49-.5.84-.71,1.19-.71a.85.85,0,0,0,.61-.18.87.87,0,0,1,.62-.18,1.1,1.1,0,0,0,.72-.26c.17-.21.63-.27,1.95-.27s1.79.06,2,.27.57.26,1.43.26a3,3,0,0,1,1.33.18.54.54,0,0,0,.43.18,1.08,1.08,0,0,1,.65.44,1.05,1.05,0,0,0,.63.45.76.76,0,0,1,.51.27.81.81,0,0,0,.53.26,1.14,1.14,0,0,1,.89.91,4.25,4.25,0,0,0,1,1.2,3.56,3.56,0,0,1,1,1.29c0,.41.32.45.48,0a.44.44,0,0,0-.19-.5.77.77,0,0,1-.29-.54,2.38,2.38,0,0,0-.71-1,2.52,2.52,0,0,1-.71-.92c0-.31-.75-1-1.08-1a1.07,1.07,0,0,1-.6-.45,1.06,1.06,0,0,0-.64-.44.78.78,0,0,1-.53-.27.84.84,0,0,0-.55-.26c-.19,0-.34-.08-.34-.18s-.19-.18-.42-.18a.57.57,0,0,1-.53-.27.52.52,0,0,0-.46-.26.6.6,0,0,1-.46-.18.58.58,0,0,0-.46-.18.51.51,0,0,1-.45-.27c-.08-.21-.49-.26-2.11-.26s-2,.05-2.11.26m2.8,2.3c-.07.2-.35.28-1,.28-.47,0-.87.08-.87.18s-.4.18-.89.18c-.7,0-.92.07-1,.31a4.09,4.09,0,0,1-.26.62,1.45,1.45,0,0,0-.17.54,1.8,1.8,0,0,1-.53.75,1.7,1.7,0,0,0-.53.84c0,.17-.08.32-.18.32s-.18.14-.18.31a3.74,3.74,0,0,1-1,1.29,3.84,3.84,0,0,0-1,1.28c0,.18-.08.32-.17.32s-.18.15-.18.33a2.41,2.41,0,0,1-.71,1,2.49,2.49,0,0,0-.71,1,.8.8,0,0,1-.28.52c-.43.36-.27,1.31.23,1.38s.6,1.14.22,1.37a.57.57,0,0,0-.17.42,1.34,1.34,0,0,1-.45.74,1.5,1.5,0,0,0-.45.69,2.22,2.22,0,0,1-.71.91c-.91.8-1,1.42-.12,1.42s1.62,1.28,1,1.92c-.17.17-.17.26,0,.43a2.29,2.29,0,0,1,0,1.83.57.57,0,0,0-.17.42,1.66,1.66,0,0,1-.54.82,1.42,1.42,0,0,0-.53,1.2,1.32,1.32,0,0,1-1,1.41.55.55,0,0,0-.41.46,1.42,1.42,0,0,1-.5.74c-.84.66-.55,1.51.56,1.62.75.07.89.15.94.49s.18.4.49.4c.54,0,.57.31,0,.39s-.62,2.32-.07,2.42,1,.59,1,.93a1.14,1.14,0,0,0,.92.88.76.76,0,0,1,.5.27c.15.18.56.26,1.33.26s1.18-.08,1.34-.26a1.21,1.21,0,0,1,.82-.27c.33,0,.6-.08.6-.18s.35-.17.78-.17a1.48,1.48,0,0,0,1-.27c.15-.18.55-.27,1.22-.27.83,0,1.07-.08,1.42-.45a1.39,1.39,0,0,1,.69-.44c.54,0,2.36-2.26,2.36-2.94a.74.74,0,0,1,.27-.44.77.77,0,0,0,.26-.49,1.37,1.37,0,0,1,.45-.68,1.33,1.33,0,0,0,.44-.66.74.74,0,0,1,.27-.48.84.84,0,0,0,.26-.55c0-.22.13-.34.37-.34.48,0,.64.47.28.87a1.09,1.09,0,0,0-.29.58,1.39,1.39,0,0,1-.44.69,1.37,1.37,0,0,0-.45.88,1.9,1.9,0,0,1-.71,1.16c-.55.53-.71.83-.71,1.28s-.08.59-.18.59c-.28,0-.21.35.09.47s1.51-1,1.51-1.43a2.79,2.79,0,0,1,.71-.91,2.44,2.44,0,0,0,.71-1,1.13,1.13,0,0,1,.45-.66,1.15,1.15,0,0,0,.44-.7.51.51,0,0,1,.27-.46c.17-.06.27-.34.27-.73s.08-.63.17-.63.18-.15.18-.33a.85.85,0,0,1,.27-.56.78.78,0,0,0,.27-.53.81.81,0,0,1,.26-.53,1.46,1.46,0,0,0,.27-1,1.47,1.47,0,0,1,.18-.88.57.57,0,0,0,.18-.44.5.5,0,0,1,.26-.43c.17-.06.27-.33.27-.73s.1-.67.27-.74.26-.33.26-.69a1.06,1.06,0,0,1,.18-.71.85.85,0,0,0,.18-.61,1.1,1.1,0,0,1,.26-.72,1.21,1.21,0,0,0,.27-.82c0-.33.08-.6.18-.6a8,8,0,0,0,.18-2.58,15.37,15.37,0,0,0-.11-2.58c-.21,0-.77.81-.78,1.11s-.18.31-1.16.31h-1.15v-.58c0-.45-.17-.75-.72-1.28s-.71-.81-.71-1.45a1.56,1.56,0,0,0-.17-.87.54.54,0,0,1-.18-.42,1.27,1.27,0,0,0-.54-.73,1.15,1.15,0,0,1-.53-1.17,1.5,1.5,0,0,0-.18-.88.58.58,0,0,1-.18-.46c0-.45-.48-.63-.93-.35s-1.38-.53-1.38-1.23c0-.54-.29-.89-.73-.89-.19,0-.33-.16-.37-.4-.07-.5-1.14-.69-1.32-.24m8.66,17.41a1.46,1.46,0,0,0-.19.79c0,.36-.1.63-.27.69a.52.52,0,0,0-.26.45.5.5,0,0,1-.27.44c-.17.07-.27.34-.27.8s-.08.69-.18.69-.17-.32-.17-.71.08-.71.17-.71.18-.29.18-.63.1-.67.27-.73a.59.59,0,0,0,.27-.53c0-.26.1-.43.26-.43a.27.27,0,0,0,.27-.27c0-.16.09-.23.19-.16s.14.17,0,.31m-2.15,5.73c0,.24-.08.44-.17.44s-.18-.2-.18-.44.08-.45.18-.45.17.2.17.45m-.53.88c0,.25-.08.45-.18.45s-.18-.2-.18-.45.08-.44.18-.44.18.2.18.44" style="fill:#040404;fill-rule:evenodd"/></svg>